<svg version="1.1" id="Layer_1" xmlns="http://www.w3.org/2000/svg" xmlns:xlink="http://www.w3.org/1999/xlink" x="0px" y="0px"
	 width="837.044px" height="304.698px" viewBox="0 0 837.044 304.698" enable-background="new 0 0 837.044 304.698">
<path fill="#003468" d="M270.113,246.053c0,17.387-14.098,31.484-31.485,31.484H49.866c-17.388,0-31.481-14.098-31.481-31.484
	V57.292c0-17.389,14.093-31.483,31.481-31.483h188.763c17.387,0,31.485,14.094,31.485,31.483V246.053z"/>
<g>
	<path fill="#FFFFFF" d="M136.017,146.909c4.535,2.754,13.93,5.831,21.218,5.831c7.452,0,10.529-2.428,10.529-6.479
		c0-4.211-2.429-6.155-11.5-9.233c-16.522-5.345-22.838-14.416-22.676-23.647c0-14.902,12.634-26.079,32.232-26.079
		c9.233,0,17.331,2.268,22.191,4.698l-4.212,16.845c-3.563-1.782-10.527-4.374-17.168-4.374c-5.994,0-9.396,2.431-9.396,6.318
		c0,3.888,3.078,5.831,12.796,9.232c15.063,5.021,21.22,12.796,21.381,24.296c0,14.901-11.501,25.753-34.177,25.753
		c-10.367,0-19.598-2.43-25.59-5.67L136.017,146.909z"/>
	<path fill="#FFFFFF" d="M230.772,67.542v21.542h17.654v18.141h-17.654v28.833c0,9.556,2.429,13.929,9.718,13.929
		c3.401,0,5.021-0.163,7.289-0.648l0.161,18.625c-3.076,1.136-9.07,2.107-15.872,2.107c-7.938,0-14.579-2.752-18.628-6.803
		c-4.535-4.698-6.803-12.31-6.803-23.486v-32.557h-10.529V89.083h10.529V74.182L230.772,67.542z"/>
	<path fill="#003468" d="M329.412,168.29v-25.105h-46.648v-16.036l39.684-64.142h30.288v61.711h12.473v18.466h-12.473v25.105
		H329.412z M329.412,124.718v-23.324c0-6.316,0.325-12.795,0.648-19.598h-0.485c-3.403,6.803-6.316,12.958-9.882,19.598
		l-13.928,23.001l-0.163,0.323H329.412z"/>
	<path fill="#003468" d="M378.653,146.909c4.534,2.754,13.93,5.831,21.219,5.831c7.45,0,10.526-2.428,10.526-6.479
		c0-4.211-2.429-6.155-11.499-9.233c-16.521-5.345-22.837-14.416-22.676-23.647c0-14.902,12.635-26.079,32.234-26.079
		c9.232,0,17.332,2.268,22.19,4.698l-4.213,16.845c-3.562-1.782-10.526-4.374-17.169-4.374c-5.991,0-9.393,2.431-9.393,6.318
		c0,3.888,3.077,5.831,12.795,9.232c15.063,5.021,21.216,12.796,21.382,24.296c0,14.901-11.502,25.753-34.177,25.753
		c-10.367,0-19.6-2.43-25.593-5.67L378.653,146.909z"/>
	<path fill="#003468" d="M442.635,115.647c0-10.367-0.326-19.111-0.65-26.564h21.383l1.131,11.014h0.325
		c5.833-8.26,14.904-12.795,26.4-12.795c17.331,0,32.88,15.064,32.88,40.332c0,28.831-18.301,42.437-35.956,42.437
		c-9.557,0-17.006-3.889-20.572-9.071h-0.32v39.359h-24.62V115.647z M467.255,134.274c0,1.944,0.159,3.564,0.484,5.183
		c1.621,6.641,7.29,11.661,14.414,11.661c10.691,0,17.01-8.908,17.01-22.351c0-12.634-5.673-22.191-16.685-22.191
		c-6.964,0-13.118,5.183-14.739,12.473c-0.325,1.296-0.484,2.915-0.484,4.373V134.274z"/>
	<path fill="#003468" d="M573.174,170.071c-23.164,0-40.979-15.225-40.979-40.818c0-25.591,16.845-41.951,42.436-41.951
		c24.136,0,40.331,16.683,40.331,40.655c0,28.832-20.569,42.113-41.627,42.113H573.174z M573.659,152.415
		c9.717,0,15.709-9.556,15.709-23.81c0-11.662-4.531-23.647-15.709-23.647c-11.662,0-16.199,11.985-16.199,23.81
		c0,13.443,5.669,23.647,16.035,23.647H573.659z"/>
	<path fill="#003468" d="M627.111,115.162c0-11.662-0.165-19.274-0.649-26.079h21.058l0.971,14.74h0.65
		c4.048-11.662,13.604-16.521,21.378-16.521c2.267,0,3.401,0.163,5.184,0.485v23.163c-2.107-0.324-4.049-0.648-6.805-0.648
		c-9.07,0-15.225,4.697-16.845,12.472c-0.321,1.621-0.486,3.402-0.486,5.508v40.007h-24.62L627.111,115.162z"/>
	<path fill="#003468" d="M716.196,67.542v21.542h17.655v18.141h-17.655v28.833c0,9.556,2.431,13.929,9.717,13.929
		c3.401,0,5.021-0.163,7.288-0.648l0.165,18.625c-3.077,1.136-9.07,2.107-15.874,2.107c-7.935,0-14.579-2.752-18.627-6.803
		c-4.537-4.698-6.804-12.31-6.804-23.486v-32.557h-10.526V89.083h10.526V74.182L716.196,67.542z"/>
</g>
<g>
	<path fill="#FFFFFF" d="M76.898,119.605H45.629v-26.9c19.583,0.23,38.04-5.615,42.394-26.439h27.32v171.711H76.898V119.605z"/>
</g>
</svg>
