<svg version="1.1" id="Layer_1" xmlns="http://www.w3.org/2000/svg" xmlns:xlink="http://www.w3.org/1999/xlink" x="0px" y="0px"
	 width="277.181px" height="269.798px" viewBox="0 0 277.181 269.798" enable-background="new 0 0 277.181 269.798">
<path fill="#003468" d="M264.744,229.946c0,17.387-14.098,31.484-31.485,31.484H44.497c-17.388,0-31.481-14.098-31.481-31.484
	V41.185c0-17.389,14.093-31.483,31.481-31.483h188.763c17.387,0,31.485,14.094,31.485,31.483V229.946z"/>
<path fill="#FFFFFF" d="M130.648,130.801c4.535,2.754,13.93,5.831,21.218,5.831c7.452,0,10.529-2.428,10.529-6.479
	c0-4.211-2.429-6.155-11.5-9.233c-16.522-5.345-22.838-14.416-22.676-23.647c0-14.902,12.634-26.079,32.232-26.079
	c9.233,0,17.331,2.268,22.191,4.698l-4.212,16.845c-3.563-1.782-10.527-4.374-17.168-4.374c-5.994,0-9.396,2.431-9.396,6.318
	c0,3.888,3.078,5.831,12.796,9.232c15.063,5.021,21.22,12.796,21.381,24.296c0,14.901-11.501,25.753-34.177,25.753
	c-10.367,0-19.598-2.43-25.59-5.67L130.648,130.801z"/>
<path fill="#FFFFFF" d="M225.403,51.435v21.542h17.654v18.141h-17.654v28.833c0,9.556,2.429,13.929,9.718,13.929
	c3.401,0,5.021-0.163,7.289-0.648l0.161,18.625c-3.076,1.136-9.07,2.107-15.872,2.107c-7.938,0-14.579-2.752-18.628-6.803
	c-4.535-4.698-6.803-12.31-6.803-23.486V91.117H190.74V72.976h10.529V58.075L225.403,51.435z"/>
<g>
	<path fill="#FFFFFF" d="M71.529,103.498H40.26v-26.9c19.583,0.23,38.04-5.615,42.394-26.439h27.32V221.87H71.529V103.498z"/>
</g>
</svg>
