<svg width="214px" height="75.334px" viewBox="0 0 214 75.334" xmlns="http://www.w3.org/2000/svg">
<g id="Layer_1">
	<path fill="#EC008C" d="M60.021,32.638c-1.066,0.001-8.315,0.003-11.459,0.003c-2.029,0-3.46,0.823-4.468,1.917h15.072
		c1.766,0,2.777-1.073,2.997-2.138c0.108-0.528,0.401-2.271,0.711-4.115c0.385-2.297,0.822-4.899,1.028-5.899
		c0.169-0.823,0.115-1.434-0.157-1.767c-0.222-0.272-0.633-0.411-1.223-0.411H41.542c-1.767,0-2.303,1.675-2.451,2.395
		l-6.157,29.912c-0.171,0.833-0.094,1.481,0.224,1.871c0.236,0.29,0.573,0.393,0.791,0.393h25.004
		c-0.096-0.244-0.219-0.48-0.377-0.703c-0.697-0.982-1.921-1.481-3.637-1.481c0,0-19.183,0-19.593,0
		c0.526-2.547,5.837-28.34,6.265-30.422h20.32c-0.066,0.358-0.537,2.939-0.537,2.939C60.877,27.976,60.181,31.799,60.021,32.638z
		 M68.17,17.542c-0.792-0.973-2.05-1.486-3.636-1.486c-0.004,0-25.263-0.028-25.263-0.028c-3.206,0-5.941,2.414-6.653,5.869
		L26.264,52.75c-0.482,2.344,0.18,3.77,0.819,4.556c0.761,0.934,1.927,1.469,3.2,1.469h28.555l0.041-0.114
		c0.027-0.079,0.477-1.396,0.327-2.789H33.948c-0.474,0-1.149-0.207-1.623-0.788c-0.369-0.452-0.745-1.299-0.443-2.766l6.157-29.912
		c0.419-2.036,1.729-3.251,3.503-3.251h20.979c0.928,0,1.62,0.271,2.056,0.806c0.489,0.601,0.616,1.496,0.375,2.662
		c-0.202,0.98-0.637,3.572-1.021,5.86c-0.325,1.936-0.605,3.607-0.718,4.155c-0.307,1.491-1.678,2.995-4.048,2.995h-15.89
		c-1.27,2.014-1.509,4.311-1.513,4.352l-0.018,0.188h17.554c3.967,0,6.625-2.823,7.199-5.613c0-0.001,2.421-12.594,2.421-12.594
		C69.294,20.135,69.036,18.605,68.17,17.542z"/>
	<path fill="#6F2C91" d="M79.007,10.515c-2.138-2.313-5.304-3.586-8.915-3.586c0,0-14.7,0.003-14.706,0.003L33.129,6.935
		c-3.586,0-7.189,1.275-10.146,3.592c-3.083,2.415-5.196,5.761-5.95,9.421c-0.587,2.854-6.83,32.321-9.181,43.415L6.75,68.569
		l0.671-0.04c0.272-0.016,3.897-0.254,7.453-1.744c1.477-6.906,9.233-43.175,9.896-46.398c1.188-5.771,6.609-10.122,12.609-10.122
		l15.19-0.003l14.38-0.003c2.885,0,5.373,1.103,7.004,3.104c1.645,2.019,2.224,4.712,1.632,7.582
		c-1.105,5.358-2.868,13.155-3.454,15.708c-1.339,5.83-5.126,8.912-10.952,8.912H40.796c-1.249,1.867-1.483,3.904-1.489,3.942
		l-0.097,0.596h23.084c6.966,0,13.454-5.272,15.427-12.536c0.007-0.031,3.659-17.764,3.659-17.764
		C82.11,16.257,81.268,12.959,79.007,10.515z M70.977,15.881c1.048,1.282,1.431,3.087,1.052,4.951l-3.441,16.496
		c-0.538,2.613-4.046,5.176-7.083,5.176h-14.8c-2.331,0-3.934,0.866-5.037,1.988H61.18c5.342,0,8.675-2.718,9.905-8.078
		c0.585-2.549,2.346-10.336,3.449-15.685c0.525-2.548,0.024-4.923-1.413-6.687c-1.423-1.747-3.615-2.708-6.171-2.708l-29.57,0.006
		c-5.501,0-10.47,3.983-11.558,9.265c-0.642,3.118-7.909,37.105-9.729,45.615c2.485-1.276,4.737-3.244,5.519-6.284
		c0.752-2.918,7.77-36.145,8.519-39.779c0.761-3.693,4.155-6.374,8.072-6.374h27.579C68.059,13.781,69.855,14.507,70.977,15.881z"/>
	<g>
		<g>
			<path fill="#6F2C91" d="M90.274,39.463h-4.762c0,0,3.585-16.217,3.609-16.218h11.998c2.635,0,3.677,1.014,3.164,3.319
				l-0.858,3.852c-0.513,2.306-2.006,3.32-4.641,3.32h-7.248L90.274,39.463z M92,31.658h5.296c0.988,0,1.304-0.279,1.569-1.469
				l0.75-3.371c0.266-1.191,0.08-1.495-0.908-1.495H93.41L92,31.658z"/>
			<path fill="#6F2C91" d="M109.592,28.44h0.051c0.293-0.406,0.654-0.887,1.465-0.887h5.372c2.027,0,2.77,0.988,2.279,3.193
				l-1.935,8.717h-4.413l2.039-9.173c0.142-0.634,0.016-0.862-0.568-0.862h-3.75c-0.582,0-0.811,0.229-0.951,0.862l-2.024,9.173
				h-4.448l3.661-16.218h4.379L109.592,28.44z"/>
			<path fill="#6F2C91" d="M119.448,43.973c-1.585,0-1.314-1.905-1.314-1.905h8.285c0.785,0,1.141-0.198,1.36-1.186l0.599-2.687
				l-0.04-0.051c-0.234,0.481-0.484,0.811-0.732,1.014c-0.279,0.229-0.574,0.305-0.979,0.305h-5.347
				c-1.773,0-2.627-1.064-2.249-2.763l2.063-9.147h4.382l-2.093,9.401c-0.09,0.405,0.138,0.634,0.518,0.634h3.853
				c0.481,0,0.811-0.229,0.901-0.634l2.067-9.401h4.434l-2.905,13.05c-0.519,2.331-1.865,3.37-3.639,3.37
				C128.611,43.973,120.777,43.973,119.448,43.973z"/>
			<path fill="#6F2C91" d="M147.768,36.802c-0.396,1.774-1.606,2.661-3.633,2.661c0,0-7.512,0-8.672,0
				c-1.587,0-1.466-1.774-1.466-1.774h8.609c0.582,0,1.005-0.304,1.112-0.786l0.251-1.163c0.107-0.481-0.18-0.786-0.762-0.786
				h-5.882c-1.825,0-2.48-1.039-1.989-3.243l0.216-0.941c0.491-2.205,1.604-3.218,3.428-3.218c0,0,7.824,0,8.916,0
				c1.659,0,1.495,1.774,1.495,1.774h-8.733c-0.532,0-0.837,0.228-0.943,0.709l-0.19,0.967c-0.107,0.481,0.095,0.709,0.627,0.709
				h5.732c2.027,0,2.882,0.619,2.487,2.393L147.768,36.802z"/>
			<path fill="#6F2C91" d="M162.155,29.428c-0.583,0-0.812,0.229-0.952,0.862l-1.433,6.436c-0.141,0.634-0.015,0.862,0.568,0.862
				h7.016c0,0-0.146,1.875-1.922,1.875s-7.69,0-7.69,0c-2.027,0-2.77-0.988-2.279-3.193l1.23-5.524
				c0.49-2.205,1.673-3.193,3.7-3.193c0,0,6,0,7.56,0c1.561,0,1.236,1.875,1.236,1.875H162.155z"/>
			<path fill="#6F2C91" d="M182.613,36.776c-0.315,1.419-0.372,2.129-0.344,2.687h-4.08l0.073-1.242h-0.051
				c-0.594,0.963-1.087,1.242-1.974,1.242h-5.474c-2.078,0-2.798-0.862-2.071-4.131c0.729-3.269,1.832-4.13,3.91-4.13h6.208
				c0.405,0,0.667-0.152,0.758-0.557l0.169-0.761c0.09-0.405-0.104-0.557-0.51-0.557l-8.504,0.004c0,0,0.16-1.779,1.876-1.779
				c1.482,0,9.075,0,9.075,0c2.028,0,2.771,0.988,2.28,3.193L182.613,36.776z M174.365,33.077c-0.583,0-0.811,0.228-0.952,0.861
				l-0.62,2.787c-0.141,0.634-0.015,0.862,0.568,0.862h3.902c0.583,0,0.811-0.229,0.952-0.862l0.812-3.648H174.365z"/>
			<path fill="#6F2C91" d="M188.084,39.463h-4.43l3.609-16.218h4.417L188.084,39.463z"/>
			<path fill="#6F2C91" d="M155.756,27.553l-2.054,9.224l-0.628,2.687h-4.376l0.596-2.687l1.455-6.538l0.6-2.686H155.756z
				 M156.472,24.311c0.072-0.33-0.143-0.597-0.479-0.597h-3.212c-0.337,0-0.667,0.267-0.737,0.597l-0.373,1.73
				c-0.071,0.33,0.143,0.598,0.479,0.598h3.212c0.336,0,0.667-0.268,0.737-0.598L156.472,24.311z"/>
		</g>
		<g>
			<path fill="#6F2C91" d="M134.079,48.715c-0.583,0-0.812,0.228-0.952,0.861l-1.433,6.437c-0.142,0.633-0.015,0.86,0.568,0.86
				h7.015c0,0-0.145,1.876-1.922,1.876c-1.775,0-7.689,0-7.689,0c-2.027,0-2.77-0.989-2.279-3.193l1.23-5.523
				c0.49-2.205,1.673-3.193,3.7-3.193c0,0,6,0,7.56,0c1.561,0,1.236,1.885,1.236,1.885L134.079,48.715z"/>
			<path fill="#6F2C91" d="M154.587,56.063c-0.315,1.419-0.372,2.129-0.344,2.687h-4.08l0.074-1.241h-0.051
				c-0.595,0.962-1.088,1.241-1.975,1.241h-5.474c-2.078,0-2.798-0.861-2.07-4.13c0.728-3.27,1.831-4.131,3.909-4.131h6.209
				c0.404,0,0.667-0.152,0.757-0.558l0.169-0.76c0.091-0.406-0.104-0.558-0.509-0.558l-8.505,0.005c0,0,0.057-1.778,1.876-1.778
				c1.483,0,9.076,0,9.076,0c2.027,0,2.771,0.988,2.279,3.193L154.587,56.063z M146.339,52.363c-0.582,0-0.811,0.229-0.951,0.861
				l-0.621,2.788c-0.141,0.633-0.015,0.86,0.568,0.86h3.902c0.583,0,0.811-0.228,0.952-0.86l0.813-3.649H146.339z"/>
			<path fill="#6F2C91" d="M81.07,58.725l3.61-16.217h12.967l-0.464,2.091h-8.233l-1.095,4.902h7.848l-0.45,2.078h-7.86
				l-1.128,5.067h8.233l-0.46,2.078H81.07z"/>
			<path fill="#6F2C91" d="M105.231,57.609h-0.05c-0.318,0.634-0.856,1.115-1.515,1.115h-5.524c-2.027,0-2.77-0.987-2.279-3.193
				l1.229-5.523c0.491-2.205,1.674-3.193,3.701-3.193h5.322c0.354,0,0.622,0.051,0.78,0.253c0.188,0.178,0.273,0.482,0.369,0.963
				h0.102l1.191-5.524h4.447l-3.66,16.217h-4.105L105.231,57.609z M104.64,56.85c0.583,0,0.812-0.228,0.952-0.861l1.433-6.437
				c0.141-0.634,0.015-0.861-0.568-0.861h-3.902c-0.583,0-0.812,0.228-0.952,0.861l-1.433,6.437
				c-0.141,0.634-0.015,0.861,0.568,0.861H104.64z"/>
			<path fill="#6F2C91" d="M120.899,58.725l0.169-1.216h-0.05c-0.513,0.938-0.904,1.216-1.64,1.216h-5.423
				c-2.026,0-2.77-0.987-2.279-3.193l1.903-8.716h4.447l-2.042,9.173c-0.141,0.634-0.014,0.861,0.568,0.861h3.751
				c0.583,0,0.811-0.228,0.952-0.861l2.039-9.173h4.411l-2.665,11.91H120.899z"/>
			<path fill="#6F2C91" d="M167.528,48.589h-4.282l-1.568,7.044c-0.22,0.988,0.033,1.216,0.819,1.216l4.241-0.003
				c0,0-0.092,1.878-1.889,1.878c-1.266,0-5.381,0-5.381,0c-1.773,0-2.657-1.039-2.139-3.37l1.506-6.765h-2.305l0.395-1.774h2.306
				l0.541-2.432l4.539-0.583l-0.671,3.015h4.282L167.528,48.589z"/>
			<path fill="#6F2C91" d="M176.171,58.725c-2.027,0-2.77-0.987-2.279-3.193l1.229-5.523c0.491-2.205,1.674-3.193,3.701-3.193h8.261
				c2.027,0,2.771,0.989,2.279,3.193l-1.229,5.523c-0.491,2.206-1.674,3.193-3.7,3.193H176.171z M182.671,56.85
				c0.582,0,0.81-0.228,0.951-0.861l1.433-6.437c0.142-0.634,0.015-0.861-0.568-0.861h-3.902c-0.583,0-0.811,0.228-0.952,0.861
				l-1.433,6.437c-0.141,0.634-0.014,0.861,0.568,0.861H182.671z"/>
			<path fill="#6F2C91" d="M195.803,46.815l-0.169,1.216h0.05c0.514-0.937,0.904-1.216,1.64-1.216h5.422
				c2.027,0,2.771,0.989,2.28,3.193l-1.923,8.716h-4.444l2.06-9.173c0.142-0.634,0.014-0.861-0.568-0.861h-3.75
				c-0.584,0-0.811,0.228-0.952,0.861l-2.057,9.173h-4.373l2.651-11.91H195.803z"/>
			<path fill="#6F2C91" d="M174.363,46.815l-2.054,9.224l-0.628,2.686h-4.377l0.596-2.686l1.455-6.538l0.601-2.686H174.363z
				 M175.141,43.318c0.071-0.33-0.144-0.597-0.479-0.597h-3.212c-0.336,0-0.666,0.268-0.737,0.597l-0.373,1.731
				c-0.07,0.33,0.143,0.598,0.479,0.598h3.212c0.336,0,0.666-0.268,0.737-0.598L175.141,43.318z"/>
		</g>
	</g>
	<g>
		<path fill="#EC008C" d="M97.708,18.66c-0.189,0.756-0.229,1.134-0.222,1.431h-2.173l0.057-0.661h-0.027
			c-0.33,0.513-0.597,0.661-1.069,0.661h-2.916c-1.107,0-1.478-0.459-1.044-2.2c0.435-1.741,1.035-2.2,2.142-2.2h3.307
			c0.216,0,0.358-0.081,0.412-0.297l0.101-0.405c0.054-0.216-0.047-0.297-0.263-0.297h-3.537c-0.392,0-0.638,0.014-1.168,0.135
			l0.418-1.08h5.616c1.079,0,1.461,0.526,1.168,1.701L97.708,18.66z M93.367,16.689c-0.311,0-0.436,0.121-0.52,0.459l-0.37,1.484
			c-0.084,0.338-0.02,0.459,0.29,0.459h2.079c0.311,0,0.436-0.121,0.52-0.459l0.484-1.943H93.367z"/>
		<path fill="#EC008C" d="M105.912,18.674c-0.235,0.945-0.894,1.417-1.973,1.417h-5.399l0.097-1.093
			c0.348,0.122,0.638,0.148,1.501,0.148H103c0.311,0,0.54-0.162,0.604-0.418l0.087-0.351c0.064-0.257-0.085-0.419-0.396-0.419
			h-2.982c-0.972,0-1.307-0.553-1.014-1.728l0.192-0.77c0.293-1.175,0.9-1.714,1.872-1.714h5.602l-0.097,1.093
			c-0.348-0.121-0.638-0.148-1.502-0.148h-2.97c-0.283,0-0.449,0.121-0.513,0.378l-0.074,0.297
			c-0.063,0.257,0.041,0.378,0.324,0.378h2.889c1.08,0,1.502,0.473,1.267,1.418L105.912,18.674z"/>
		<path fill="#EC008C" d="M114.051,18.674c-0.235,0.945-0.893,1.417-1.973,1.417h-5.4l0.097-1.093
			c0.348,0.122,0.638,0.148,1.502,0.148h2.861c0.311,0,0.54-0.162,0.604-0.418l0.087-0.351c0.064-0.257-0.084-0.419-0.396-0.419
			h-2.982c-0.972,0-1.307-0.553-1.014-1.728l0.191-0.77c0.293-1.175,0.9-1.714,1.872-1.714h5.603l-0.098,1.093
			c-0.348-0.121-0.638-0.148-1.502-0.148h-2.97c-0.283,0-0.448,0.121-0.513,0.378l-0.074,0.297
			c-0.064,0.257,0.041,0.378,0.324,0.378h2.889c1.08,0,1.501,0.473,1.266,1.418L114.051,18.674z"/>
		<path fill="#EC008C" d="M116.141,20.091c-1.08,0-1.462-0.526-1.169-1.701l0.734-2.943c0.293-1.174,0.937-1.701,2.017-1.701h4.4
			c1.081,0,1.462,0.526,1.169,1.701l-0.733,2.943c-0.293,1.174-0.937,1.701-2.017,1.701H116.141z M119.63,19.092
			c0.311,0,0.436-0.121,0.52-0.459l0.854-3.429c0.085-0.337,0.021-0.459-0.291-0.459h-2.078c-0.311,0-0.436,0.122-0.52,0.459
			l-0.854,3.429c-0.085,0.338-0.021,0.459,0.29,0.459H119.63z"/>
		<path fill="#EC008C" d="M127.14,14.745c-0.312,0-0.436,0.122-0.52,0.459l-0.855,3.429c-0.084,0.338-0.02,0.459,0.291,0.459h3.172
			c0.202,0,0.466-0.026,0.763-0.081l-0.458,1.08h-4.887c-1.08,0-1.462-0.526-1.169-1.701l0.733-2.943
			c0.293-1.174,0.938-1.701,2.018-1.701h4.887l-0.081,1.08c-0.27-0.054-0.52-0.081-0.722-0.081H127.14z"/>
		<path fill="#EC008C" d="M134.583,13.747l-1.225,4.914c-0.188,0.756-0.229,1.134-0.223,1.431h-2.618
			c0.154-0.297,0.304-0.675,0.491-1.431l0.868-3.482c0.188-0.756,0.229-1.134,0.223-1.431H134.583z M135.075,11.613l-0.377,1.512
			h-2.268l0.377-1.512H135.075z"/>
		<path fill="#EC008C" d="M142.025,18.66c-0.188,0.756-0.229,1.134-0.222,1.431h-2.173l0.057-0.661h-0.027
			c-0.33,0.513-0.598,0.661-1.069,0.661h-2.916c-1.106,0-1.479-0.459-1.044-2.2c0.434-1.741,1.034-2.2,2.141-2.2h3.308
			c0.216,0,0.357-0.081,0.411-0.297l0.102-0.405c0.054-0.216-0.048-0.297-0.264-0.297h-3.536c-0.392,0-0.639,0.014-1.168,0.135
			l0.417-1.08h5.616c1.08,0,1.462,0.526,1.169,1.701L142.025,18.66z M137.683,16.689c-0.31,0-0.436,0.121-0.52,0.459l-0.37,1.484
			c-0.083,0.338-0.02,0.459,0.291,0.459h2.079c0.31,0,0.436-0.121,0.52-0.459l0.484-1.943H137.683z"/>
		<path fill="#EC008C" d="M149.318,14.691h-2.281l-0.936,3.753c-0.131,0.526,0.001,0.647,0.419,0.647h0.958
			c0.662,0,1.205-0.067,1.36-0.148l-0.502,1.147h-3.456c-0.944,0-1.4-0.553-1.091-1.795l0.898-3.604h-1.229l0.236-0.945h1.228
			l0.323-1.296l2.427-0.311l-0.401,1.607h2.282L149.318,14.691z"/>
		<path fill="#EC008C" d="M153.104,13.747l-1.225,4.914c-0.188,0.756-0.229,1.134-0.222,1.431h-2.619
			c0.154-0.297,0.303-0.675,0.491-1.431l0.868-3.482c0.188-0.756,0.229-1.134,0.223-1.431H153.104z M153.595,11.613l-0.377,1.512
			h-2.268l0.377-1.512H153.595z"/>
		<path fill="#EC008C" d="M154.127,20.091c-1.08,0-1.462-0.526-1.169-1.701l0.734-2.943c0.292-1.174,0.937-1.701,2.017-1.701h4.4
			c1.08,0,1.462,0.526,1.169,1.701l-0.734,2.943c-0.293,1.174-0.937,1.701-2.017,1.701H154.127z M157.616,19.092
			c0.311,0,0.436-0.121,0.52-0.459l0.855-3.429c0.084-0.337,0.02-0.459-0.291-0.459h-2.078c-0.312,0-0.437,0.122-0.52,0.459
			l-0.855,3.429c-0.084,0.338-0.02,0.459,0.291,0.459H157.616z"/>
		<path fill="#EC008C" d="M164.997,13.747l-0.108,0.648h0.028c0.286-0.5,0.498-0.648,0.89-0.648h2.89
			c1.079,0,1.461,0.526,1.168,1.701l-0.801,3.213c-0.188,0.756-0.229,1.134-0.222,1.431h-2.619c0.155-0.297,0.304-0.675,0.492-1.431
			l0.861-3.456c0.084-0.337,0.021-0.459-0.29-0.459h-1.999c-0.31,0-0.435,0.122-0.519,0.459l-0.861,3.456
			c-0.188,0.756-0.229,1.134-0.222,1.431h-2.619c0.155-0.297,0.303-0.675,0.492-1.431l0.868-3.482
			c0.188-0.756,0.229-1.134,0.222-1.431H164.997z"/>
		<path fill="#EC008C" d="M173.561,13.747h1.27l0.147-0.594c0.293-1.174,0.938-1.701,2.018-1.701h3.375l-0.081,1.08
			c-0.27-0.054-0.52-0.081-0.722-0.081h-1.66c-0.311,0-0.436,0.122-0.52,0.459l-0.209,0.837h2.241l-0.236,0.945h-2.24l-0.99,3.969
			c-0.188,0.756-0.228,1.134-0.222,1.431h-2.618c0.155-0.297,0.303-0.675,0.491-1.431l0.99-3.969h-1.27L173.561,13.747z"/>
		<path fill="#EC008C" d="M179.836,20.091c-1.08,0-1.462-0.526-1.169-1.701l0.733-2.943c0.293-1.174,0.938-1.701,2.018-1.701h4.4
			c1.08,0,1.462,0.526,1.169,1.701l-0.734,2.943c-0.293,1.174-0.937,1.701-2.017,1.701H179.836z M183.325,19.092
			c0.311,0,0.436-0.121,0.52-0.459l0.855-3.429c0.084-0.337,0.02-0.459-0.291-0.459h-2.079c-0.311,0-0.436,0.122-0.52,0.459
			l-0.854,3.429c-0.084,0.338-0.02,0.459,0.29,0.459H183.325z"/>
		<path fill="#EC008C" d="M193.447,15.15c-0.398-0.081-0.669-0.135-1.572-0.135h-0.892c-0.257,0-0.436,0.121-0.489,0.337
			l-0.825,3.308c-0.188,0.756-0.228,1.134-0.222,1.431h-2.618c0.155-0.297,0.303-0.675,0.492-1.431l0.868-3.482
			c0.188-0.756,0.229-1.134,0.222-1.431h2.254l-0.077,0.688h0.027c0.195-0.513,0.536-0.688,1.265-0.688h1.917L193.447,15.15z"/>
	</g>
</g>
<g id="Layer_2">
</g>
</svg>
