<svg width="220.667px" height="104.667px" viewBox="0 0 220.667 104.667" xmlns="http://www.w3.org/2000/svg">
<g id="Layer_1">
	<path fill="#FFFFFF" d="M63.354,59.304c-1.066,0.001-8.315,0.003-11.459,0.003c-2.029,0-3.46,0.823-4.468,1.917h15.072
		c1.766,0,2.777-1.073,2.997-2.138c0.108-0.528,0.401-2.271,0.711-4.115c0.385-2.297,0.822-4.899,1.028-5.899
		c0.169-0.823,0.115-1.434-0.157-1.767c-0.222-0.272-0.633-0.411-1.223-0.411H44.875c-1.767,0-2.303,1.675-2.451,2.395L36.267,79.2
		c-0.171,0.833-0.094,1.481,0.224,1.871c0.236,0.29,0.573,0.393,0.791,0.393h25.004c-0.096-0.244-0.219-0.48-0.377-0.703
		c-0.697-0.982-1.921-1.481-3.637-1.481c0,0-19.183,0-19.593,0c0.526-2.547,5.837-28.34,6.265-30.422h20.32
		c-0.066,0.358-0.537,2.939-0.537,2.939C64.21,54.642,63.514,58.465,63.354,59.304z M71.503,44.208
		c-0.792-0.973-2.05-1.486-3.636-1.486c-0.004,0-25.263-0.028-25.263-0.028c-3.206,0-5.941,2.414-6.653,5.869l-6.354,30.853
		c-0.482,2.344,0.18,3.77,0.819,4.556c0.761,0.934,1.927,1.469,3.2,1.469h28.555l0.041-0.114c0.027-0.079,0.477-1.396,0.327-2.789
		H37.281c-0.474,0-1.149-0.207-1.623-0.788c-0.369-0.452-0.745-1.299-0.443-2.766l6.157-29.912c0.419-2.036,1.729-3.251,3.503-3.251
		h20.979c0.928,0,1.62,0.271,2.056,0.806c0.489,0.601,0.616,1.496,0.375,2.662c-0.202,0.98-0.637,3.572-1.021,5.86
		c-0.325,1.936-0.605,3.607-0.718,4.155c-0.307,1.491-1.678,2.995-4.048,2.995h-15.89c-1.27,2.014-1.509,4.311-1.513,4.352
		l-0.018,0.188h17.554c3.967,0,6.625-2.823,7.199-5.613c0-0.001,2.421-12.594,2.421-12.594
		C72.627,46.801,72.369,45.271,71.503,44.208z"/>
	<path fill="#FFFFFF" d="M82.34,37.181c-2.138-2.313-5.304-3.586-8.915-3.586c0,0-14.7,0.003-14.706,0.003l-22.257,0.003
		c-3.586,0-7.189,1.275-10.146,3.592c-3.083,2.415-5.196,5.761-5.95,9.421c-0.587,2.854-6.83,32.321-9.181,43.415l-1.103,5.207
		l0.671-0.04c0.272-0.016,3.897-0.254,7.453-1.744c1.477-6.906,9.233-43.175,9.896-46.398c1.188-5.771,6.609-10.122,12.609-10.122
		l15.19-0.003l14.38-0.003c2.885,0,5.373,1.103,7.004,3.104c1.645,2.019,2.224,4.712,1.632,7.582
		c-1.105,5.358-2.868,13.155-3.454,15.708c-1.339,5.83-5.126,8.912-10.952,8.912H44.129c-1.249,1.867-1.483,3.904-1.489,3.942
		l-0.097,0.596h23.084c6.966,0,13.454-5.272,15.427-12.536c0.007-0.031,3.659-17.764,3.659-17.764
		C85.443,42.923,84.601,39.625,82.34,37.181z M74.31,42.547c1.048,1.282,1.431,3.087,1.052,4.951L71.92,63.993
		c-0.538,2.613-4.046,5.176-7.083,5.176h-14.8c-2.331,0-3.934,0.866-5.037,1.988h19.513c5.342,0,8.675-2.718,9.905-8.078
		c0.585-2.549,2.346-10.336,3.449-15.685c0.525-2.548,0.024-4.923-1.413-6.687c-1.423-1.747-3.615-2.708-6.171-2.708l-29.57,0.006
		c-5.501,0-10.47,3.983-11.558,9.265c-0.642,3.118-7.909,37.105-9.729,45.615c2.485-1.276,4.737-3.244,5.519-6.284
		c0.752-2.918,7.77-36.145,8.519-39.779c0.761-3.693,4.155-6.374,8.072-6.374h27.579C71.392,40.447,73.188,41.173,74.31,42.547z"/>
	<g>
		<g>
			<path fill="#FFFFFF" d="M93.607,66.129h-4.762c0,0,3.585-16.217,3.609-16.218h11.998c2.635,0,3.677,1.014,3.164,3.319
				l-0.858,3.852c-0.513,2.306-2.006,3.32-4.641,3.32H94.87L93.607,66.129z M95.333,58.324h5.296c0.988,0,1.304-0.279,1.569-1.469
				l0.75-3.371c0.266-1.191,0.08-1.495-0.908-1.495h-5.297L95.333,58.324z"/>
			<path fill="#FFFFFF" d="M112.925,55.106h0.051c0.293-0.406,0.654-0.887,1.465-0.887h5.372c2.027,0,2.77,0.988,2.279,3.193
				l-1.935,8.717h-4.413l2.039-9.173c0.142-0.634,0.016-0.862-0.568-0.862h-3.75c-0.582,0-0.811,0.229-0.951,0.862l-2.024,9.173
				h-4.448l3.661-16.218h4.379L112.925,55.106z"/>
			<path fill="#FFFFFF" d="M122.781,70.639c-1.585,0-1.314-1.905-1.314-1.905h8.285c0.785,0,1.141-0.198,1.36-1.186l0.599-2.687
				l-0.04-0.051c-0.234,0.481-0.484,0.811-0.732,1.014c-0.279,0.229-0.574,0.305-0.979,0.305h-5.347
				c-1.773,0-2.627-1.064-2.249-2.763l2.063-9.147h4.382l-2.093,9.401c-0.09,0.405,0.138,0.634,0.518,0.634h3.853
				c0.481,0,0.811-0.229,0.901-0.634l2.067-9.401h4.434l-2.905,13.05c-0.519,2.331-1.865,3.37-3.639,3.37
				C131.944,70.639,124.11,70.639,122.781,70.639z"/>
			<path fill="#FFFFFF" d="M151.101,63.468c-0.396,1.774-1.606,2.661-3.633,2.661c0,0-7.512,0-8.672,0
				c-1.587,0-1.466-1.774-1.466-1.774h8.609c0.582,0,1.005-0.304,1.112-0.786l0.251-1.163c0.107-0.481-0.18-0.786-0.762-0.786
				h-5.882c-1.825,0-2.48-1.039-1.989-3.243l0.216-0.941c0.491-2.205,1.604-3.218,3.428-3.218c0,0,7.824,0,8.916,0
				c1.659,0,1.495,1.774,1.495,1.774h-8.733c-0.532,0-0.837,0.228-0.943,0.709l-0.19,0.967c-0.107,0.481,0.095,0.709,0.627,0.709
				h5.732c2.027,0,2.882,0.619,2.487,2.393L151.101,63.468z"/>
			<path fill="#FFFFFF" d="M165.488,56.094c-0.583,0-0.812,0.229-0.952,0.862l-1.433,6.436c-0.141,0.634-0.015,0.862,0.568,0.862
				h7.016c0,0-0.146,1.875-1.922,1.875s-7.69,0-7.69,0c-2.027,0-2.77-0.988-2.279-3.193l1.23-5.524
				c0.49-2.205,1.673-3.193,3.7-3.193c0,0,6,0,7.56,0c1.561,0,1.236,1.875,1.236,1.875H165.488z"/>
			<path fill="#FFFFFF" d="M185.946,63.442c-0.315,1.419-0.372,2.129-0.344,2.687h-4.08l0.073-1.242h-0.051
				c-0.594,0.963-1.087,1.242-1.974,1.242h-5.474c-2.078,0-2.798-0.862-2.071-4.131c0.729-3.269,1.832-4.13,3.91-4.13h6.208
				c0.405,0,0.667-0.152,0.758-0.557l0.169-0.761c0.09-0.405-0.104-0.557-0.51-0.557l-8.504,0.004c0,0,0.16-1.779,1.876-1.779
				c1.482,0,9.075,0,9.075,0c2.028,0,2.771,0.988,2.28,3.193L185.946,63.442z M177.698,59.743c-0.583,0-0.811,0.228-0.952,0.861
				l-0.62,2.787c-0.141,0.634-0.015,0.862,0.568,0.862h3.902c0.583,0,0.811-0.229,0.952-0.862l0.812-3.648H177.698z"/>
			<path fill="#FFFFFF" d="M191.417,66.129h-4.43l3.609-16.218h4.417L191.417,66.129z"/>
			<path fill="#FFFFFF" d="M159.089,54.219l-2.054,9.224l-0.628,2.687h-4.376l0.596-2.687l1.455-6.538l0.6-2.686H159.089z
				 M159.805,50.977c0.072-0.33-0.143-0.597-0.479-0.597h-3.212c-0.337,0-0.667,0.267-0.737,0.597l-0.373,1.73
				c-0.071,0.33,0.143,0.598,0.479,0.598h3.212c0.336,0,0.667-0.268,0.737-0.598L159.805,50.977z"/>
		</g>
		<g>
			<path fill="#FFFFFF" d="M137.412,75.381c-0.583,0-0.812,0.228-0.952,0.861l-1.433,6.437c-0.142,0.633-0.015,0.86,0.568,0.86
				h7.015c0,0-0.145,1.876-1.922,1.876c-1.775,0-7.689,0-7.689,0c-2.027,0-2.77-0.989-2.279-3.193l1.23-5.523
				c0.49-2.205,1.673-3.193,3.7-3.193c0,0,6,0,7.56,0c1.561,0,1.236,1.885,1.236,1.885L137.412,75.381z"/>
			<path fill="#FFFFFF" d="M157.92,82.729c-0.315,1.419-0.372,2.129-0.344,2.687h-4.08l0.074-1.241h-0.051
				c-0.595,0.962-1.088,1.241-1.975,1.241h-5.474c-2.078,0-2.798-0.861-2.07-4.13c0.728-3.27,1.831-4.131,3.909-4.131h6.209
				c0.404,0,0.667-0.152,0.757-0.558l0.169-0.76c0.091-0.406-0.104-0.558-0.509-0.558l-8.505,0.005c0,0,0.057-1.778,1.876-1.778
				c1.483,0,9.076,0,9.076,0c2.027,0,2.771,0.988,2.279,3.193L157.92,82.729z M149.672,79.029c-0.582,0-0.811,0.229-0.951,0.861
				l-0.621,2.788c-0.141,0.633-0.015,0.86,0.568,0.86h3.902c0.583,0,0.811-0.228,0.952-0.86l0.813-3.649H149.672z"/>
			<path fill="#FFFFFF" d="M84.403,85.391l3.61-16.217h12.967l-0.464,2.091h-8.233l-1.095,4.902h7.848l-0.45,2.078h-7.86
				l-1.128,5.067h8.233l-0.46,2.078H84.403z"/>
			<path fill="#FFFFFF" d="M108.564,84.275h-0.05c-0.318,0.634-0.856,1.115-1.515,1.115h-5.524c-2.027,0-2.77-0.987-2.279-3.193
				l1.229-5.523c0.491-2.205,1.674-3.193,3.701-3.193h5.322c0.354,0,0.622,0.051,0.78,0.253c0.188,0.178,0.273,0.482,0.369,0.963
				h0.102l1.191-5.524h4.447l-3.66,16.217h-4.105L108.564,84.275z M107.973,83.516c0.583,0,0.812-0.228,0.952-0.861l1.433-6.437
				c0.141-0.634,0.015-0.861-0.568-0.861h-3.902c-0.583,0-0.812,0.228-0.952,0.861l-1.433,6.437
				c-0.141,0.634-0.015,0.861,0.568,0.861H107.973z"/>
			<path fill="#FFFFFF" d="M124.232,85.391l0.169-1.216h-0.05c-0.513,0.938-0.904,1.216-1.64,1.216h-5.423
				c-2.026,0-2.77-0.987-2.279-3.193l1.903-8.716h4.447l-2.042,9.173c-0.141,0.634-0.014,0.861,0.568,0.861h3.751
				c0.583,0,0.811-0.228,0.952-0.861l2.039-9.173h4.411l-2.665,11.91H124.232z"/>
			<path fill="#FFFFFF" d="M170.861,75.255h-4.282L165.01,82.3c-0.22,0.988,0.033,1.216,0.819,1.216l4.241-0.003
				c0,0-0.092,1.878-1.889,1.878c-1.266,0-5.381,0-5.381,0c-1.773,0-2.657-1.039-2.139-3.37l1.506-6.765h-2.305l0.395-1.774h2.306
				l0.541-2.432l4.539-0.583l-0.671,3.015h4.282L170.861,75.255z"/>
			<path fill="#FFFFFF" d="M179.504,85.391c-2.027,0-2.77-0.987-2.279-3.193l1.229-5.523c0.491-2.205,1.674-3.193,3.701-3.193h8.261
				c2.027,0,2.771,0.989,2.279,3.193l-1.229,5.523c-0.491,2.206-1.674,3.193-3.7,3.193H179.504z M186.004,83.516
				c0.582,0,0.81-0.228,0.951-0.861l1.433-6.437c0.142-0.634,0.015-0.861-0.568-0.861h-3.902c-0.583,0-0.811,0.228-0.952,0.861
				l-1.433,6.437c-0.141,0.634-0.014,0.861,0.568,0.861H186.004z"/>
			<path fill="#FFFFFF" d="M199.136,73.481l-0.169,1.216h0.05c0.514-0.937,0.904-1.216,1.64-1.216h5.422
				c2.027,0,2.771,0.989,2.28,3.193l-1.923,8.716h-4.444l2.06-9.173c0.142-0.634,0.014-0.861-0.568-0.861h-3.75
				c-0.584,0-0.811,0.228-0.952,0.861l-2.057,9.173h-4.373l2.651-11.91H199.136z"/>
			<path fill="#FFFFFF" d="M177.696,73.481l-2.054,9.224l-0.628,2.686h-4.377l0.596-2.686l1.455-6.538l0.601-2.686H177.696z
				 M178.474,69.984c0.071-0.33-0.144-0.597-0.479-0.597h-3.212c-0.336,0-0.666,0.268-0.737,0.597l-0.373,1.731
				c-0.07,0.33,0.143,0.598,0.479,0.598h3.212c0.336,0,0.666-0.268,0.737-0.598L178.474,69.984z"/>
		</g>
	</g>
	<g>
		<path fill="#FFFFFF" d="M101.041,45.326c-0.189,0.756-0.229,1.134-0.222,1.431h-2.173l0.057-0.661h-0.027
			c-0.33,0.513-0.597,0.661-1.069,0.661H94.69c-1.107,0-1.478-0.459-1.044-2.2c0.435-1.741,1.035-2.2,2.142-2.2h3.307
			c0.216,0,0.358-0.081,0.412-0.297l0.101-0.405c0.054-0.216-0.047-0.297-0.263-0.297h-3.537c-0.392,0-0.638,0.014-1.168,0.135
			l0.418-1.08h5.616c1.079,0,1.461,0.526,1.168,1.701L101.041,45.326z M96.7,43.355c-0.311,0-0.436,0.121-0.52,0.459l-0.37,1.484
			c-0.084,0.338-0.02,0.459,0.29,0.459h2.079c0.311,0,0.436-0.121,0.52-0.459l0.484-1.943H96.7z"/>
		<path fill="#FFFFFF" d="M109.245,45.34c-0.235,0.945-0.894,1.417-1.973,1.417h-5.399l0.097-1.093
			c0.348,0.122,0.638,0.148,1.501,0.148h2.862c0.311,0,0.54-0.162,0.604-0.418l0.087-0.351c0.064-0.257-0.085-0.419-0.396-0.419
			h-2.982c-0.972,0-1.307-0.553-1.014-1.728l0.192-0.77c0.293-1.175,0.9-1.714,1.872-1.714h5.602l-0.097,1.093
			c-0.348-0.121-0.638-0.148-1.502-0.148h-2.97c-0.283,0-0.449,0.121-0.513,0.378l-0.074,0.297
			c-0.063,0.257,0.041,0.378,0.324,0.378h2.889c1.08,0,1.502,0.473,1.267,1.418L109.245,45.34z"/>
		<path fill="#FFFFFF" d="M117.384,45.34c-0.235,0.945-0.893,1.417-1.973,1.417h-5.4l0.097-1.093
			c0.348,0.122,0.638,0.148,1.502,0.148h2.861c0.311,0,0.54-0.162,0.604-0.418l0.087-0.351c0.064-0.257-0.084-0.419-0.396-0.419
			h-2.982c-0.972,0-1.307-0.553-1.014-1.728l0.191-0.77c0.293-1.175,0.9-1.714,1.872-1.714h5.603l-0.098,1.093
			c-0.348-0.121-0.638-0.148-1.502-0.148h-2.97c-0.283,0-0.448,0.121-0.513,0.378l-0.074,0.297
			c-0.064,0.257,0.041,0.378,0.324,0.378h2.889c1.08,0,1.501,0.473,1.266,1.418L117.384,45.34z"/>
		<path fill="#FFFFFF" d="M119.474,46.757c-1.08,0-1.462-0.526-1.169-1.701l0.734-2.943c0.293-1.174,0.937-1.701,2.017-1.701h4.4
			c1.081,0,1.462,0.526,1.169,1.701l-0.733,2.943c-0.293,1.174-0.937,1.701-2.017,1.701H119.474z M122.963,45.758
			c0.311,0,0.436-0.121,0.52-0.459l0.854-3.429c0.085-0.337,0.021-0.459-0.291-0.459h-2.078c-0.311,0-0.436,0.122-0.52,0.459
			l-0.854,3.429c-0.085,0.338-0.021,0.459,0.29,0.459H122.963z"/>
		<path fill="#FFFFFF" d="M130.473,41.411c-0.312,0-0.436,0.122-0.52,0.459l-0.855,3.429c-0.084,0.338-0.02,0.459,0.291,0.459h3.172
			c0.202,0,0.466-0.026,0.763-0.081l-0.458,1.08h-4.887c-1.08,0-1.462-0.526-1.169-1.701l0.733-2.943
			c0.293-1.174,0.938-1.701,2.018-1.701h4.887l-0.081,1.08c-0.27-0.054-0.52-0.081-0.722-0.081H130.473z"/>
		<path fill="#FFFFFF" d="M137.917,40.413l-1.225,4.914c-0.188,0.756-0.229,1.134-0.223,1.431h-2.618
			c0.154-0.297,0.304-0.675,0.491-1.431l0.868-3.482c0.188-0.756,0.229-1.134,0.223-1.431H137.917z M138.408,38.279l-0.377,1.512
			h-2.268l0.377-1.512H138.408z"/>
		<path fill="#FFFFFF" d="M145.358,45.326c-0.188,0.756-0.229,1.134-0.222,1.431h-2.173l0.057-0.661h-0.027
			c-0.33,0.513-0.598,0.661-1.069,0.661h-2.916c-1.106,0-1.479-0.459-1.044-2.2c0.434-1.741,1.034-2.2,2.141-2.2h3.308
			c0.216,0,0.357-0.081,0.411-0.297l0.102-0.405c0.054-0.216-0.048-0.297-0.264-0.297h-3.536c-0.392,0-0.639,0.014-1.168,0.135
			l0.417-1.08h5.616c1.08,0,1.462,0.526,1.169,1.701L145.358,45.326z M141.016,43.355c-0.31,0-0.436,0.121-0.52,0.459l-0.37,1.484
			c-0.083,0.338-0.02,0.459,0.291,0.459h2.079c0.31,0,0.436-0.121,0.52-0.459l0.484-1.943H141.016z"/>
		<path fill="#FFFFFF" d="M152.651,41.357h-2.281l-0.936,3.753c-0.131,0.526,0.001,0.647,0.419,0.647h0.958
			c0.662,0,1.205-0.067,1.36-0.148l-0.502,1.147h-3.456c-0.944,0-1.4-0.553-1.091-1.795l0.898-3.604h-1.229l0.236-0.945h1.228
			l0.323-1.296l2.427-0.311l-0.401,1.607h2.282L152.651,41.357z"/>
		<path fill="#FFFFFF" d="M156.437,40.413l-1.225,4.914c-0.188,0.756-0.229,1.134-0.222,1.431h-2.619
			c0.154-0.297,0.303-0.675,0.491-1.431l0.868-3.482c0.188-0.756,0.229-1.134,0.223-1.431H156.437z M156.928,38.279l-0.377,1.512
			h-2.268l0.377-1.512H156.928z"/>
		<path fill="#FFFFFF" d="M157.46,46.757c-1.08,0-1.462-0.526-1.169-1.701l0.734-2.943c0.292-1.174,0.937-1.701,2.017-1.701h4.4
			c1.08,0,1.462,0.526,1.169,1.701l-0.734,2.943c-0.293,1.174-0.937,1.701-2.017,1.701H157.46z M160.949,45.758
			c0.311,0,0.436-0.121,0.52-0.459l0.855-3.429c0.084-0.337,0.02-0.459-0.291-0.459h-2.078c-0.312,0-0.437,0.122-0.52,0.459
			l-0.855,3.429c-0.084,0.338-0.02,0.459,0.291,0.459H160.949z"/>
		<path fill="#FFFFFF" d="M168.33,40.413l-0.108,0.648h0.028c0.286-0.5,0.498-0.648,0.89-0.648h2.89
			c1.079,0,1.461,0.526,1.168,1.701l-0.801,3.213c-0.188,0.756-0.229,1.134-0.222,1.431h-2.619c0.155-0.297,0.304-0.675,0.492-1.431
			l0.861-3.456c0.084-0.337,0.021-0.459-0.29-0.459h-1.999c-0.31,0-0.435,0.122-0.519,0.459l-0.861,3.456
			c-0.188,0.756-0.229,1.134-0.222,1.431h-2.619c0.155-0.297,0.303-0.675,0.492-1.431l0.868-3.482
			c0.188-0.756,0.229-1.134,0.222-1.431H168.33z"/>
		<path fill="#FFFFFF" d="M176.894,40.413h1.27l0.147-0.594c0.293-1.174,0.938-1.701,2.018-1.701h3.375l-0.081,1.08
			c-0.27-0.054-0.52-0.081-0.722-0.081h-1.66c-0.311,0-0.436,0.122-0.52,0.459l-0.209,0.837h2.241l-0.236,0.945h-2.24l-0.99,3.969
			c-0.188,0.756-0.228,1.134-0.222,1.431h-2.618c0.155-0.297,0.303-0.675,0.491-1.431l0.99-3.969h-1.27L176.894,40.413z"/>
		<path fill="#FFFFFF" d="M183.169,46.757c-1.08,0-1.462-0.526-1.169-1.701l0.733-2.943c0.293-1.174,0.938-1.701,2.018-1.701h4.4
			c1.08,0,1.462,0.526,1.169,1.701l-0.734,2.943c-0.293,1.174-0.937,1.701-2.017,1.701H183.169z M186.658,45.758
			c0.311,0,0.436-0.121,0.52-0.459l0.855-3.429c0.084-0.337,0.02-0.459-0.291-0.459h-2.079c-0.311,0-0.436,0.122-0.52,0.459
			l-0.854,3.429c-0.084,0.338-0.02,0.459,0.29,0.459H186.658z"/>
		<path fill="#FFFFFF" d="M196.78,41.816c-0.398-0.081-0.669-0.135-1.572-0.135h-0.892c-0.257,0-0.436,0.121-0.489,0.337
			l-0.825,3.308c-0.188,0.756-0.228,1.134-0.222,1.431h-2.618c0.155-0.297,0.303-0.675,0.492-1.431l0.868-3.482
			c0.188-0.756,0.229-1.134,0.222-1.431h2.254l-0.077,0.688h0.027c0.195-0.513,0.536-0.688,1.265-0.688h1.917L196.78,41.816z"/>
	</g>
</g>
<g id="Layer_2">
	<g>
		<path fill="#FFFFFF" d="M19.8,10.103h7.704v2.484h-4.392v2.412h4.176v2.484h-4.176v2.7h4.626v2.484H19.8V10.103z"/>
		<path fill="#FFFFFF" d="M29.232,15.196c0-0.348-0.012-0.699-0.036-1.053s-0.048-0.639-0.072-0.855h3.042
			c0.024,0.192,0.042,0.435,0.054,0.729c0.012,0.294,0.018,0.573,0.018,0.837h0.036c0.048-0.12,0.126-0.282,0.234-0.486
			c0.108-0.204,0.264-0.402,0.468-0.594c0.204-0.192,0.465-0.357,0.783-0.495c0.318-0.138,0.705-0.207,1.161-0.207
			c0.396,0,0.768,0.061,1.116,0.18c0.348,0.12,0.651,0.306,0.909,0.558c0.258,0.252,0.459,0.567,0.603,0.945
			s0.216,0.825,0.216,1.341v6.57h-3.24v-5.634c0-0.888-0.294-1.332-0.882-1.332c-0.204,0-0.378,0.048-0.522,0.144
			s-0.264,0.228-0.36,0.396c-0.096,0.168-0.168,0.363-0.216,0.585s-0.072,0.453-0.072,0.693v5.148h-3.24V15.196z"/>
		<path fill="#FFFFFF" d="M48.42,21.011c0,0.276,0.006,0.552,0.018,0.828c0.012,0.276,0.03,0.552,0.054,0.828h-3.096
			c-0.024-0.252-0.045-0.504-0.063-0.756s-0.027-0.504-0.027-0.756H45.27c-0.348,0.636-0.726,1.071-1.134,1.305
			c-0.408,0.234-0.858,0.351-1.35,0.351c-0.612,0-1.14-0.129-1.584-0.387c-0.444-0.258-0.81-0.615-1.098-1.071
			s-0.498-0.993-0.63-1.611c-0.132-0.618-0.198-1.281-0.198-1.989c0-0.552,0.066-1.104,0.198-1.656
			c0.132-0.552,0.333-1.053,0.603-1.503c0.27-0.45,0.615-0.815,1.035-1.098c0.419-0.282,0.924-0.423,1.512-0.423
			c0.624,0,1.128,0.129,1.512,0.387c0.384,0.258,0.744,0.657,1.08,1.197h0.036c-0.024-0.204-0.042-0.447-0.054-0.729
			c-0.012-0.282-0.018-0.597-0.018-0.945V9.167h3.24V21.011z M42.93,19.805c0.18,0.492,0.51,0.738,0.99,0.738
			c0.408,0,0.72-0.243,0.936-0.729c0.216-0.486,0.324-1.125,0.324-1.917s-0.108-1.428-0.324-1.908
			c-0.216-0.479-0.528-0.72-0.936-0.72c-0.48,0-0.81,0.24-0.99,0.72c-0.18,0.48-0.27,1.116-0.27,1.908
			C42.66,18.677,42.75,19.313,42.93,19.805z"/>
		<path fill="#FFFFFF" d="M50.229,16.142c0.162-0.594,0.429-1.119,0.801-1.575c0.372-0.456,0.855-0.819,1.449-1.089
			c0.594-0.27,1.316-0.405,2.169-0.405c0.852,0,1.575,0.135,2.169,0.405c0.594,0.27,1.074,0.633,1.44,1.089
			c0.366,0.456,0.633,0.981,0.801,1.575c0.168,0.594,0.252,1.209,0.252,1.845c0,0.636-0.084,1.251-0.252,1.845
			c-0.168,0.594-0.435,1.116-0.801,1.566c-0.366,0.45-0.846,0.81-1.44,1.08c-0.594,0.27-1.317,0.405-2.169,0.405
			c-0.853,0-1.575-0.135-2.169-0.405c-0.594-0.27-1.077-0.63-1.449-1.08s-0.639-0.972-0.801-1.566
			c-0.162-0.594-0.243-1.209-0.243-1.845C49.986,17.351,50.067,16.735,50.229,16.142z M53.415,18.995
			c0.03,0.324,0.09,0.612,0.18,0.864c0.09,0.252,0.219,0.453,0.387,0.603c0.168,0.15,0.39,0.225,0.666,0.225
			c0.276,0,0.498-0.075,0.666-0.225c0.168-0.15,0.297-0.351,0.387-0.603c0.09-0.252,0.15-0.54,0.18-0.864
			c0.03-0.324,0.045-0.66,0.045-1.008c0-0.335-0.015-0.668-0.045-0.999c-0.03-0.33-0.09-0.621-0.18-0.873
			c-0.09-0.252-0.219-0.456-0.387-0.612c-0.168-0.156-0.39-0.234-0.666-0.234c-0.276,0-0.498,0.078-0.666,0.234
			c-0.168,0.156-0.297,0.36-0.387,0.612c-0.09,0.252-0.15,0.543-0.18,0.873c-0.03,0.331-0.045,0.664-0.045,0.999
			C53.37,18.334,53.385,18.67,53.415,18.995z"/>
		<path fill="#FFFFFF" d="M60.876,16.006c0-0.672-0.012-1.239-0.036-1.701s-0.048-0.801-0.072-1.017h3.042
			c0.024,0.192,0.042,0.435,0.054,0.729c0.012,0.294,0.018,0.573,0.018,0.837h0.036c0.072-0.18,0.162-0.375,0.27-0.585
			s0.255-0.405,0.441-0.585s0.417-0.327,0.693-0.441c0.276-0.114,0.605-0.171,0.99-0.171c0.12,0,0.216,0.003,0.288,0.009
			c0.072,0.006,0.156,0.021,0.252,0.045v2.826c-0.072-0.024-0.204-0.048-0.396-0.072c-0.192-0.024-0.384-0.036-0.576-0.036
			c-0.528,0-0.954,0.204-1.278,0.612c-0.324,0.408-0.486,0.924-0.486,1.548v4.662h-3.24V16.006z"/>
		<path fill="#FFFFFF" d="M67.986,19.949c0.252,0.132,0.579,0.276,0.981,0.432c0.402,0.156,0.891,0.234,1.467,0.234
			c0.888,0,1.332-0.222,1.332-0.666c0-0.168-0.075-0.306-0.225-0.414c-0.15-0.108-0.423-0.234-0.819-0.378l-0.99-0.36
			c-0.744-0.264-1.251-0.621-1.521-1.071c-0.27-0.45-0.405-0.975-0.405-1.575c0-0.408,0.069-0.801,0.207-1.179
			c0.138-0.378,0.363-0.705,0.675-0.981c0.312-0.276,0.717-0.498,1.215-0.666c0.498-0.168,1.101-0.252,1.809-0.252
			c0.492,0,0.963,0.042,1.413,0.126c0.45,0.084,0.849,0.186,1.197,0.306l-0.108,2.34c-0.3-0.132-0.654-0.261-1.062-0.387
			c-0.408-0.126-0.822-0.189-1.242-0.189c-0.312,0-0.582,0.051-0.81,0.153c-0.228,0.102-0.342,0.279-0.342,0.531
			c0,0.168,0.084,0.312,0.252,0.432c0.168,0.12,0.444,0.252,0.828,0.396l1.08,0.396c0.288,0.108,0.549,0.229,0.783,0.36
			s0.432,0.297,0.594,0.495c0.162,0.198,0.285,0.441,0.369,0.729c0.084,0.288,0.126,0.636,0.126,1.044
			c0,0.972-0.321,1.728-0.963,2.268c-0.642,0.54-1.659,0.81-3.051,0.81c-0.252,0-0.52-0.012-0.801-0.036
			c-0.282-0.024-0.555-0.057-0.819-0.099c-0.264-0.042-0.504-0.09-0.72-0.144c-0.216-0.054-0.39-0.105-0.522-0.153L67.986,19.949z"
			/>
		<path fill="#FFFFFF" d="M78.983,18.869c0.024,0.384,0.102,0.699,0.234,0.945c0.132,0.246,0.303,0.447,0.513,0.603
			c0.21,0.156,0.453,0.264,0.729,0.324c0.276,0.06,0.564,0.09,0.864,0.09c0.444,0,0.912-0.081,1.404-0.243
			c0.492-0.162,0.936-0.327,1.332-0.495l0.072,2.25c-0.384,0.132-0.861,0.252-1.431,0.36c-0.57,0.108-1.186,0.168-1.845,0.18
			c-0.948,0-1.737-0.144-2.367-0.432c-0.63-0.288-1.131-0.666-1.503-1.134c-0.372-0.468-0.636-0.999-0.792-1.593
			c-0.156-0.594-0.234-1.191-0.234-1.791c0-0.648,0.093-1.263,0.279-1.845c0.186-0.582,0.465-1.098,0.837-1.548
			c0.372-0.45,0.828-0.807,1.368-1.071c0.54-0.264,1.164-0.396,1.872-0.396c0.732,0,1.368,0.135,1.908,0.405s0.99,0.63,1.35,1.08
			c0.36,0.45,0.627,0.969,0.801,1.557c0.174,0.588,0.261,1.2,0.261,1.836v0.918H78.983z M81.684,17.176v-0.27
			c0-0.636-0.096-1.104-0.288-1.404c-0.192-0.3-0.534-0.45-1.026-0.45c-0.457,0-0.813,0.192-1.071,0.576
			c-0.258,0.384-0.387,0.9-0.387,1.548H81.684z"/>
		<path fill="#FFFFFF" d="M95.058,21.011c0,0.276,0.006,0.552,0.018,0.828c0.012,0.276,0.03,0.552,0.054,0.828h-3.096
			c-0.024-0.252-0.045-0.504-0.063-0.756s-0.027-0.504-0.027-0.756h-0.036c-0.348,0.636-0.726,1.071-1.134,1.305
			c-0.408,0.234-0.858,0.351-1.35,0.351c-0.612,0-1.14-0.129-1.584-0.387c-0.444-0.258-0.81-0.615-1.098-1.071
			s-0.498-0.993-0.63-1.611c-0.132-0.618-0.198-1.281-0.198-1.989c0-0.552,0.066-1.104,0.198-1.656
			c0.132-0.552,0.333-1.053,0.603-1.503c0.27-0.45,0.615-0.815,1.035-1.098c0.419-0.282,0.924-0.423,1.512-0.423
			c0.624,0,1.128,0.129,1.512,0.387c0.384,0.258,0.744,0.657,1.08,1.197h0.036c-0.024-0.204-0.042-0.447-0.054-0.729
			c-0.012-0.282-0.018-0.597-0.018-0.945V9.167h3.24V21.011z M89.568,19.805c0.18,0.492,0.51,0.738,0.99,0.738
			c0.408,0,0.72-0.243,0.936-0.729c0.216-0.486,0.324-1.125,0.324-1.917s-0.108-1.428-0.324-1.908
			c-0.216-0.479-0.528-0.72-0.936-0.72c-0.48,0-0.81,0.24-0.99,0.72c-0.18,0.48-0.27,1.116-0.27,1.908
			C89.298,18.677,89.388,19.313,89.568,19.805z"/>
		<path fill="#FFFFFF" d="M101.519,9.167h3.24v3.816c0,0.348-0.006,0.663-0.018,0.945c-0.012,0.282-0.03,0.525-0.054,0.729h0.036
			c0.336-0.54,0.696-0.939,1.08-1.197c0.384-0.258,0.888-0.387,1.512-0.387c0.588,0,1.092,0.142,1.512,0.423
			c0.42,0.282,0.765,0.648,1.035,1.098c0.27,0.45,0.471,0.952,0.603,1.503c0.132,0.552,0.198,1.104,0.198,1.656
			c0,0.708-0.066,1.371-0.198,1.989c-0.132,0.618-0.342,1.155-0.63,1.611c-0.288,0.456-0.654,0.813-1.098,1.071
			c-0.444,0.258-0.972,0.387-1.584,0.387c-0.492,0-0.942-0.117-1.35-0.351c-0.408-0.234-0.786-0.669-1.134-1.305h-0.036
			c0,0.252-0.009,0.504-0.027,0.756c-0.018,0.252-0.039,0.504-0.063,0.756h-3.096c0.024-0.276,0.042-0.552,0.054-0.828
			c0.012-0.276,0.018-0.552,0.018-0.828V9.167z M107.009,15.988c-0.18-0.479-0.51-0.72-0.99-0.72c-0.408,0-0.72,0.24-0.936,0.72
			c-0.216,0.48-0.324,1.116-0.324,1.908s0.108,1.431,0.324,1.917c0.216,0.486,0.528,0.729,0.936,0.729c0.48,0,0.81-0.246,0.99-0.738
			c0.18-0.492,0.27-1.128,0.27-1.908C107.279,17.104,107.189,16.469,107.009,15.988z"/>
		<path fill="#FFFFFF" d="M114.768,13.289l1.674,5.976h0.036l1.548-5.976h3.149l-3.51,10.458c-0.132,0.396-0.285,0.771-0.459,1.125
			c-0.174,0.354-0.396,0.663-0.666,0.927s-0.597,0.474-0.981,0.63c-0.384,0.156-0.858,0.234-1.422,0.234
			c-0.456,0-0.828-0.036-1.116-0.108c-0.288-0.072-0.516-0.138-0.684-0.198l0.09-2.34c0.156,0.048,0.297,0.087,0.423,0.117
			s0.272,0.045,0.441,0.045c0.504,0,0.885-0.142,1.143-0.423c0.258-0.282,0.387-0.645,0.387-1.089l-3.438-9.378H114.768z"/>
	</g>
</g>
</svg>
