<svg width="1096" height="20" viewBox="0 0 1096 20" xmlns="http://www.w3.org/2000/svg"><g fill="none"><g fill="#fff"><path d="M.007 20V7.813s7.353.37 12.012-.486C9.62 8.06 8.03 8.732 6.674 9.304c-1.35.577-2.458 1.072-3.695 1.8-.01.017.003.027.023.027.228 0 1.946-1.02 4.15-1.875 2.405-.96 5.387-1.575 7.048-1.617-4.195.91-4.423 1.454-4.403 1.534.06.173.41.085-1.986 1.147 2.545-.923 4.914-1.475 7.477-1.764.64-.047 1.29-.137 1.962-.14l1.072-.036 1.348-.012 5.882-.08c4.39-.438-3.63-.596-2.735-1.164.987.037 1.914.053 2.8.053 2.7 0 5.013-.15 7.506-.304 2.49-.152 5.15-.304 8.544-.304 1.935 0 4.106.05 6.618.176-16.973.25 4.47 1.232 10.318 1.61l-2.845.04c2.797.345 5.377.516 7.732.516 2.17 0 4.152-.146 5.94-.44-6.952-.27-13.672-.076-11.695-.753 4.587.026 9.16.05 14.36.253l-4.725-.486 22.804.127c3.61.593 9.638 1.434 12.804 2.31 1.926-.193 4.118-.26 6.378-.26 4.155 0 8.534.23 11.9.366l-2.418-.246c3.27-.17 7.837-.238 12.577-.238 9.86 0 20.48.303 21.752.657 6.66-.44-42.616-2.92-9.52-2.92 2.633 0 5.78.016 9.52.052h.154c19.12 0 11.906 1.676 22.902 2.25 0 0-.623-.17.47-.28.756-.013 1.45-.02 2.097-.02 6.556 0 7.826.555 14.153.798-2.663.133-5.947.204-8.812.204-2.593 0-4.844-.056-5.968-.17.92.252 3.474.312 6.664.312 1.464 0 3.062-.015 4.695-.025 1.64-.015 3.314-.027 4.932-.027 2.998 0 5.798.044 7.788.213-8.403-1.076 16.334-.42 9.813-.977 4.438-.187 8.956-.266 13.364-.266 12.296 0 23.744.615 30.242 1.2 3.788-.455 7.267-.59 10.902-.59 2.622 0 5.322.07 8.283.14 2.958.068 6.176.14 9.82.14 2.875 0 6.013-.043 9.51-.164-.27.003-.56.005-.873.005-1.014 0-2.222-.018-3.52-.037-1.29-.015-2.672-.033-4.033-.033-1.232 0-2.447.013-3.566.057-10.408-.846 18.38-.478 3.58-1.217-.18-.012-.392-.023-.638-.032.22.01.433.02.638.032 1.96.12.25.327-2.267.327-.54 0-1.107-.01-1.69-.033-6.228-.092-12.094-.47-10.53-.86l15.086-.776-5.266-.206 22.895-1.076c.623.173-1.527.39-2.627.5 8.27-.15 16.908-.2 25.587-.2 7.843 0 15.72.04 23.385.08 7.67.038 15.128.078 22.134.078 3.122 0 6.15-.008 9.074-.025 4.37 2.436 57.27 1.003 76.07 2.49-5.042-.695-7.8-1.93-4.678-2.44-3.79-.09-11.16-.897-19.562-.897-.896 0-1.804.008-2.72.028-1.517.395-13.257.844-5.702 1.29-26.272-.258 3.56-1.072-4.2-1.975 29.113.216 46.187 1.635 64.56 2.198l.467-.29 13.874.54c-9.642.14-10.676 1.164-1.787 1.164 1.564 0 3.437-.032 5.623-.104l-1.78-.073c2.592-.18 6.054-.24 9.984-.24 3.918 0 8.3.06 12.757.12 4.457.06 8.986.12 13.188.12.943 0 1.867-.004 2.77-.01l8.83.793c13.04-.1 13.6-1.587 17.84-2.483.946-.004 1.877-.007 2.787-.007 18.755 0 30.13 1.136 43.972 1.817 6.566-.652 37.18-.826 20.96-1.604 14.475.44 15.293 2.683 30.273 2.683 4.104 0 9.268-.17 16.063-.588l-8.21-.62c23.802.086 55.582.86 74.828.86 5.203 0 9.49-.057 12.455-.198-11.107-2.237 37.346-2.318 43.063-4.502-1.006.485 9.96.643 11.586.91 1.495-.16 3.584-.313 5.973-.313 1.584 0 3.303.067 5.057.247-9.57.366 1.857 1.644-5.556 1.644-1.717 0-4.454-.067-8.695-.233 10.99 1.45 25.043 2.59 48.412 2.59.88 0 1.77 0 2.678-.004l-.377-.92-19.77.294c1.998-.683-8.182-.624-12.348-.934 35.726-.527-2.51-2.062 29.755-2.062.946 0 1.953.002 3.024.005 3.443.56 1.512.373 9.617.547.426.02.905.03 1.435.032-.51-.012-.987-.024-1.436-.033-3.242-.135-3.136-.632 3.42-.648l7.112.732c13.122-1.545-21.736-.987-10.532-2.074-14.52-.713-39.665-1.083-34.978-2.26 1.858-.035 3.55-.052 5.118-.052 8.24 0 12.74.442 17.253.882 4.518.442 9.053.884 17.355.884 1.915 0 4.027-.026 6.39-.077l2.64-.502c8.718.335 10.128 1.143 14.9 1.63.43-.286 2.644-.5 8.25-.587 14.718 1.176 24.493 1.4 38.072 2.685-7.687-.2-13.5-.276-18.25-.276-6.642 0-11.2.144-15.882.29-4.687.146-9.5.29-16.634.29-4.632 0-10.248-.06-17.446-.223 5.847.378 32.113.64 33.728 1.912l-.347-.92c9.382.362 18.765.723 29.582.723 3.17 0 6.457-.03 9.907-.102l-9.3-.513c2.833.088 5.53.124 8.118.124 5.323 0 10.186-.15 14.818-.298 4.63-.15 9.03-.3 13.42-.3 4.32 0 8.63.146 13.146.576-2.17.034-4.185.05-6.04.05-2.796 0-5.227-.036-7.29-.113-.113-.006-.226-.01-.34-.014l.34.013c5.3.2 11.27.27 17.335.27 5.762 0 11.61-.064 17.057-.144l23.373 1.506c-.206-.455 14.606-.494 7.46-1.22 3.415-.145 6.464-.203 9.236-.203 10.886 0 17.498.904 25.25 1.08 17.23-.988-14.93-.426-16.62-1.697 5.938-.11 11.963-.17 17.87-.186l8.748.012c.665.008 1.54-.006 2.03.023.55.02 5.113.04 5.113.04V20"/><path d="M742.995 8.705c15.473-1.09-12.524-1.428-12.033-1.72l18.886.285c-8.22-.632.087-1.23-10.958-1.826 1.787.048 3.328.067 4.7.067 2.558 0 4.53-.063 6.38-.13 1.856-.063 3.595-.127 5.707-.127 1.935 0 4.185.055 7.12.213-12.51-1.423 15.495-1.09 16.86-1.965-1.43-.04-2.994-.056-4.643-.056-12.16 0-28.747.973-29.832 1.264.222.02.32.043.28.07-.325-.01-.403-.037-.28-.07-.648-.06-2.333-.085-4.53-.085-5.064 0-12.83.145-16.705.384l-8.994-1.288c.54-.003 1.088-.006 1.646-.006 2.3 0 4.72.024 7.043.048 2.32.023 4.542.047 6.435.047 4.402 0 7.034-.13 5.072-.68l13.892.554c-14.298-1.712-13.6-1.644-26.544-2.385 5.472-.29 10.698-.4 15.737-.4 7.453 0 14.496.24 21.328.475 6.83.236 13.45.47 20.047.47 4.102 0 8.193-.09 12.325-.328l-3.427-.137c3.467.026 6.72.038 9.78.038 16.3 0 27.078-.35 34.807-.907L639.782.64c-2.393.173-4.703.326-7.422.38v.004l-.018-.005c-.76.016-1.548.026-2.375.026-2.047 0-4.347-.057-7.124-.2-.934-.073-1.6-.134-2.073-.193l-41.75.03c1.45.98-30.77.924-14.497 2.178 3.584.282 3.596 1.487 14.538 1.487 1.545 0 3.305-.025 5.324-.078.206-.14-1.187-.234-2.808-.302 1.425.035 2.623.05 3.682.05 4.468 0 6.52-.27 13.036-.43 2.463-.986-9.923-.705-15.276-1.38 4.687.183 9.89.517 15.047.517.552 0 1.11-.005 1.666-.015l-1.328-.362 17.187.217c7.07.746-13.046.103-13.98.685l11.02.592c4.663.07 12.205.15 20.437.15 14.002 0 29.996-.228 37.18-1.11 2.534-.09 4.433-.127 5.864-.127 6.82 0 2.973.864 6.003 1.37 2.558.233 5.053.31 7.524.31 2.408 0 4.788-.072 7.17-.146 2.377-.074 4.757-.15 7.158-.15 1.248 0 2.503.02 3.77.07-.29.762 9.95.7 10.308 1.644l14.13-.21c3.467.61.66.734-3.902.734-1.593 0-3.4-.015-5.228-.03-1.83-.015-3.678-.03-5.363-.03-2.86 0-5.232.043-6.2.204-7.527 1.252 10.41.41 5.55 1.15-10.844-.125-11.647-.774-16.91-.98-.708-.01-1.377-.013-2.013-.013-4.925 0-7.504.306-7.327.725 2.66-.083 4.726-.118 6.368-.118 4.205 0 5.645.23 7.16.46 1.514.23 3.098.46 7.59.46.747 0 1.574-.007 2.493-.02l.466-.29c.367.94 20.57.35 28.14.808"/><path d="M407.5 5.61c7.23-.487 18.05-.364 21.8-.992l-13.404-.84-4.816.74-7.718-.93c8.71-.345 27.05-.99 31.014-1.813-1.393.007-2.834.01-4.323.01-13.23 0-30.295-.266-50.296-.97l-131.393.09 1.626.16c3.44.373 7.434.65 12.105.767l.664.014-.665-.014c-.648-.015-1.326-.022-2.04-.022-2.24 0-4.845.074-8.027.266L276.69 3.98c-.92.023-1.78.033-2.592.033-4.62 0-7.685-.308-10.973-.62-3.287-.31-6.798-.617-12.307-.617-1.1 0-2.286.012-3.562.038 1.005 1.125.07 1.707 16.283 2.507 14.134-.216-.778-.654 6.404-1.14 2.458.31 4.513.418 6.357.418 2.094 0 3.92-.138 5.75-.278 1.828-.14 3.667-.277 5.8-.277 2.058 0 4.39.128 7.25.514.636.005 1.237.008 1.8.008 11.485 0 7.802-.74 11.953-1.16-13.64-.08 6.405-1.144-10.74-1.36 2.206-.107 3.965-.15 5.416-.15 3.34 0 5.02.235 6.656.47 1.637.237 3.223.47 6.383.47.976 0 2.098-.02 3.417-.072l1.81-1.17c7.106-.233 19.66-.59 31.537-.59 6.006 0 11.842.093 16.71.337-12.23.753 7.11.745 5.113 1.44-.778-.373-3.546-.507-6.727-.507-5.444 0-12.087.4-11.967.696 6.443.15 19.372.29 28.827.29 3.728 0 6.913-.022 8.95-.073l1.5-.053c-.386.02-.89.038-1.5.053l-17.003.603c6.472.568 29.633 1.64 30.262 1.82"/><path d="M982.827 4.425c10.23 0 14.47-.354 17.767-.706 3.298-.354 5.654-.706 12.123-.706 1.86 0 4.063.028 6.723.094l-7.656.78c10.77.16 18.006.283 26.115.283 6.09 0 12.673-.068 21.62-.243.758-.303.156-.398-1.185-.398-1.118 0-2.746.066-4.523.132-1.78.066-3.705.13-5.414.13-1.21 0-2.31-.033-3.174-.12l9.83-1.004c-2.876-.02-7.504-.353-10.406-.353-1.665 0-2.76.11-2.63.453-.138-.382-4.85-.948.458-.948 1.23 0 2.997.03 5.483.102l-9.928-.705c.54-.116 1.3-.21 2.174-.278l-8.934-.124c-3.747.32-10.535.29-16.33 1.035-.43.29 5.795.386 9.357.522-4.11.19-8.014.263-11.54.263-4.184 0-7.83-.1-10.644-.213 14.123-.21 6.576-.668 9.665-1.473-8.664-.344-22.78-.132-27.996-.34-11.984.35-21.82 1.265-13.842 1.977-7.662-.376-15.7.015-23.816-.84 2.114.128 3.643.182 4.763.182 2.727 0 3.03-.316 3.422-.628.392-.316.877-.628 3.966-.628 1.63 0 3.992.088 7.453.308 1.078-.247 1.175-.43.558-.56L945.89.434c-2.373.085-4.593.18-6.415.277 5.195.21.827.65 2.085 1.014-10.34-.304-10.157-.858-5.53-1.284l-22.978.014-9.232.7 14.333.26c-2.243.32-5.06.416-8.093.416-2.44 0-5.018-.062-7.555-.126-2.53-.063-5.022-.127-7.287-.127h-.338c-8.286.593 19.066.75 28.106 2.037 2.114.163 4.87.23 7.746.23 6.888 0 14.46-.376 15.515-.687-.116-.054-.187-.113-.21-.175.373.052.423.112.21.175 2.543 1.182 26.704.594 36.192 1.265h.387"/><path d="M1064.76 1.938c1.347 0 3.094-.02 5.372-.07-.903-.25-.115-.408 1.477-.52l-12.59-.16c1.504.358 0 .75 5.74.75"/><path d="M523.297 1.912c13.003 0 3.262-.293 14.404-.73.653-.17.294-.326-.644-.472l-36.694.025c10.537.204 21.4.218 20.564 1.175.865.002 1.652.002 2.37.002"/><path d="M470.774 1.624c.826-.015 1.863-.017 3.045-.017.9 0 1.88.002 2.91.004 1.027.004 2.1.006 3.19.006 6.277 0 13.037-.073 13.905-.627-7.79-.006-10.008-.055-9.09-.245l-24.202.017c-.336.113-1.09.224-2.233.332 3.558.188 9.178.312 12.474.53"/><path d="M911.466.5c.423 0 .922-.016 1.496-.044l-2.555.003c.284.024.63.04 1.06.04"/></g></g></svg>