<svg width="1323.596px" height="297.752px" viewBox="0 0 1323.596 297.752" xmlns="http://www.w3.org/2000/svg">
<g>
	<path fill="#F37232" d="M873.661,264.839c-17.818,0-31.524-11.712-31.524-31.399s12.958-32.271,32.646-32.271
		c18.566,0,31.026,12.834,31.026,31.274c0,22.18-15.825,32.396-32.023,32.396H873.661z M874.036,251.258
		c7.476,0,12.086-7.353,12.086-18.316c0-8.972-3.489-18.191-12.086-18.191c-8.971,0-12.46,9.22-12.46,18.315
		c0,10.342,4.361,18.192,12.335,18.192H874.036z"/>
	<path fill="#F37232" d="M962.003,248.767c0,5.731,0.25,11.339,0.999,14.703H945.93l-1.12-6.106h-0.373
		c-3.988,4.86-10.217,7.476-17.446,7.476c-12.336,0-19.688-8.971-19.688-18.689c0-15.825,14.205-23.301,35.761-23.301v-0.747
		c0-3.241-1.744-7.851-11.089-7.851c-6.23,0-12.834,2.118-16.822,4.486l-3.489-12.087c4.238-2.368,12.586-5.482,23.676-5.482
		c20.312,0,26.664,11.96,26.664,26.291V248.767z M943.688,234.686c-9.969,0-17.693,2.367-17.693,9.595
		c0,4.859,3.24,7.227,7.476,7.227c4.61,0,8.597-3.115,9.844-6.978c0.249-0.997,0.373-2.118,0.373-3.239V234.686z"/>
	<path fill="#F37232" d="M1016.581,261.973c-3.363,1.621-9.72,2.866-16.947,2.866c-19.687,0-32.272-12.086-32.272-31.275
		c0-17.817,12.213-32.396,34.889-32.396c4.986,0,10.469,0.872,14.454,2.366l-2.989,14.082c-2.244-0.999-5.607-1.87-10.591-1.87
		c-9.968,0-16.448,7.103-16.323,17.07c0,11.215,7.475,17.196,16.695,17.196c4.486,0,7.975-0.749,10.841-1.995L1016.581,261.973z"/>
	<path fill="#F37232" d="M1020.816,175.001h18.938v34.889h0.252c1.992-2.741,4.484-4.86,7.474-6.355
		c2.866-1.494,6.356-2.366,9.844-2.366c12.089,0,21.31,8.349,21.31,26.789v35.513h-18.942v-33.52c0-7.975-2.739-13.456-9.842-13.456
		c-4.984,0-8.1,3.239-9.471,6.729c-0.499,1.121-0.624,2.741-0.624,4.11v36.137h-18.938V175.001z"/>
	<path d="M1100.685,202.539l4.985,25.046c1.121,6.229,2.367,12.958,3.363,19.937h0.375c1.121-6.854,2.99-13.832,4.359-19.813
		l6.48-25.17h14.953l6.105,24.298c1.744,6.978,3.365,13.706,4.486,20.685h0.247c0.874-6.854,2.119-13.832,3.615-20.809l5.11-24.174
		h18.565l-18.692,60.932h-17.692l-5.732-21.309c-1.62-5.98-2.741-11.463-3.987-19.064h-0.247c-1.123,7.602-2.369,13.333-3.864,18.94
		l-6.105,21.433h-17.818l-17.819-60.932H1100.685z"/>
	<path d="M1185.289,194.563c-6.354,0-10.467-4.485-10.467-10.092c0-5.731,4.237-10.093,10.717-10.093
		c6.479,0,10.466,4.361,10.591,10.093c0,5.606-4.112,10.092-10.714,10.092H1185.289z M1175.943,263.47v-60.932h18.94v60.932
		H1175.943z"/>
	<path d="M1203.73,247.022c3.487,2.118,10.713,4.485,16.323,4.485c5.73,0,8.097-1.868,8.097-4.983c0-3.24-1.867-4.735-8.846-7.103
		c-12.711-4.112-17.569-11.09-17.444-18.193c0-11.463,9.72-20.06,24.795-20.06c7.103,0,13.335,1.743,17.07,3.613l-3.238,12.957
		c-2.741-1.369-8.1-3.363-13.208-3.363c-4.611,0-7.226,1.869-7.226,4.86c0,2.99,2.366,4.485,9.842,7.103
		c11.59,3.862,16.324,9.843,16.448,18.689c0,11.464-8.848,19.812-26.29,19.812c-7.977,0-15.08-1.867-19.689-4.36L1203.73,247.022z"
		/>
	<path d="M1266.278,238.922c0.624,7.975,8.349,11.713,17.195,11.713c6.481,0,11.712-0.872,16.822-2.617l2.492,12.834
		c-6.231,2.618-13.832,3.864-22.054,3.864c-20.686,0-32.524-11.963-32.524-31.152c0-15.45,9.72-32.521,30.777-32.521
		c19.688,0,27.166,15.326,27.166,30.403c0,3.239-0.374,6.104-0.624,7.602L1266.278,238.922z M1288.584,225.964
		c0-4.486-1.994-12.335-10.593-12.335c-8.098,0-11.34,7.351-11.835,12.335H1288.584z"/>
</g>
<g>
	<path d="M801.632,283.986H613.285c-8.493,0-16.477-3.307-22.481-9.312c-6.004-6.004-9.312-13.988-9.312-22.48V83.723
		c0-8.493,3.308-16.477,9.312-22.482c6.004-6.005,13.988-9.312,22.481-9.312h188.348c8.493,0,16.477,3.307,22.481,9.312
		s9.311,13.989,9.311,22.482v168.471c0,8.492-3.306,16.477-9.311,22.48C818.109,280.679,810.125,283.986,801.632,283.986
		L801.632,283.986z M613.285,60.413c-12.853,0-23.31,10.457-23.31,23.31v168.471c0,12.852,10.457,23.308,23.31,23.308h188.348
		c12.852,0,23.308-10.456,23.308-23.308V83.723c0-12.854-10.456-23.31-23.308-23.31H613.285L613.285,60.413z"/>
</g>
<g>
	<path fill="#F37232" d="M684.23,244.047c-0.001,0-0.001,0-0.002,0c-8.98,0-17.088-0.93-24.1-2.765
		c-7.743-2.025-14.37-5.208-19.697-9.459c-10.479-8.323-17.92-18.164-22.115-29.249c-3.888-10.272-5.013-21.678-3.347-33.897
		c1.99-14.598,7.929-30.336,17.649-46.779c8.748-14.796,20.259-29.714,34.213-44.337c12.832-13.448,27.472-26.273,42.335-37.091
		c14.657-10.667,29.299-19.22,42.344-24.735c0.271-0.116,0.675-0.298,1.145-0.509c4.028-1.815,12.41-5.594,20.415-5.594
		c8.875,0,13.135,4.643,15.147,8.537c2.462,4.768,2.967,9.25,1.5,13.327c-1.254,3.486-3.854,6.466-7.946,9.107
		c-3.142,2.029-6.663,3.531-9.493,4.738c-20.261,8.646-50.263,30.222-74.656,53.687c-29.778,28.645-47.478,55.994-49.839,77.007
		c-1.534,13.647,3.256,24.296,14.644,32.549l0.021,0.016c4.307,3.161,10.961,4.763,19.777,4.763c0.001,0,0.003,0,0.006,0
		c18.825-0.002,46.681-7.187,82.795-21.353c29.282-11.487,56.267-24.611,67.791-30.215c3.296-1.604,5.32-2.587,6.296-3.008
		c0.39-0.184,0.88-0.426,1.442-0.706c3.869-1.923,10.342-5.141,16.771-5.141c6.003,0,10.651,2.793,13.442,8.074
		c2.262,4.234,2.719,8.776,1.323,13.136c-1.406,4.387-4.598,8.546-9.49,12.36c-3.255,2.539-6.204,4.065-6.662,4.299
		c-7.748,4.073-34.734,17.198-66.839,29.198c-18.889,7.061-36.648,12.662-52.788,16.651
		C716.474,241.561,698.949,244.047,684.23,244.047L684.23,244.047z"/>
</g>
<g>
	<rect x="8.989" y="191.008" fill="none" width="532.584" height="72.14"/>
	<path d="M30.826,256.258H14.47v-60.726h20.184c3.132,0,6.06,0.334,8.787,1c2.726,0.668,5.089,1.77,7.09,3.307
		s3.567,3.596,4.698,6.176c1.131,2.582,1.696,5.786,1.696,9.614c0,3.075-0.465,5.815-1.392,8.222
		c-0.928,2.407-2.249,4.437-3.958,6.09c-1.711,1.653-3.756,2.914-6.133,3.784c-2.379,0.87-4.989,1.306-7.83,1.306h-6.786V256.258z
		 M33.001,223.373c2.203,0,4.016-0.71,5.438-2.132c1.42-1.421,2.131-3.35,2.131-5.786c0-2.84-0.711-4.928-2.131-6.264
		c-1.422-1.333-3.379-2-5.873-2H30.13v16.182H33.001z"/>
	<path d="M104.514,248.776c0,1.684,0.057,3.19,0.174,4.524c0.115,1.335,0.231,2.32,0.348,2.958H90.333
		c-0.117-0.927-0.204-2.102-0.261-3.523c-0.059-1.421-0.087-2.77-0.087-4.046h-0.174c-0.232,0.64-0.609,1.436-1.131,2.393
		s-1.276,1.9-2.262,2.828c-0.987,0.928-2.249,1.726-3.785,2.393c-1.538,0.666-3.408,1-5.611,1c-1.914,0-3.712-0.291-5.394-0.87
		c-1.683-0.579-3.147-1.479-4.394-2.697c-1.248-1.218-2.219-2.74-2.915-4.567s-1.044-3.986-1.044-6.481v-31.755h15.66v27.231
		c0,2.205,0.348,3.828,1.044,4.872c0.696,1.044,1.827,1.565,3.393,1.565c1.101,0,2.015-0.23,2.741-0.695
		c0.725-0.464,1.29-1.058,1.696-1.784c0.405-0.725,0.681-1.522,0.827-2.393c0.144-0.87,0.218-1.739,0.218-2.609v-26.188h15.66
		V248.776z"/>
	<path d="M113.213,191.008h15.66v18.444c0,1.683-0.03,3.205-0.087,4.567c-0.058,1.363-0.146,2.538-0.261,3.523h0.174
		c1.623-2.61,3.363-4.538,5.22-5.786c1.855-1.246,4.292-1.87,7.308-1.87c2.841,0,5.277,0.683,7.308,2.044
		c2.03,1.364,3.698,3.133,5.002,5.308c1.305,2.175,2.276,4.598,2.915,7.265c0.638,2.668,0.957,5.337,0.957,8.004
		c0,3.423-0.319,6.627-0.957,9.613c-0.639,2.988-1.653,5.583-3.045,7.787s-3.162,3.93-5.307,5.176
		c-2.146,1.247-4.698,1.871-7.656,1.871c-2.379,0-4.554-0.565-6.525-1.697c-1.973-1.131-3.8-3.232-5.481-6.307h-0.174
		c0,1.218-0.043,2.436-0.13,3.653c-0.087,1.219-0.189,2.437-0.305,3.654h-14.964c0.116-1.334,0.203-2.667,0.261-4.002
		c0.057-1.334,0.087-2.667,0.087-4.002V191.008z M139.748,223.981c-0.87-2.318-2.466-3.479-4.785-3.479
		c-1.973,0-3.48,1.161-4.524,3.479c-1.044,2.32-1.566,5.395-1.566,9.223s0.522,6.916,1.566,9.266
		c1.044,2.349,2.551,3.523,4.524,3.523c2.319,0,3.915-1.188,4.785-3.567c0.87-2.378,1.305-5.451,1.305-9.222
		C141.053,229.375,140.618,226.301,139.748,223.981z"/>
	<path d="M165.412,191.008h15.66v65.25h-15.66V191.008z"/>
	<path d="M191.163,191.008h15.66v13.05h-15.66V191.008z M191.163,210.931h15.66v45.327h-15.66V210.931z"/>
	<path d="M215.174,243.122c1.218,0.639,2.797,1.335,4.741,2.088c1.943,0.754,4.307,1.131,7.091,1.131
		c4.292,0,6.438-1.072,6.438-3.219c0-0.812-0.363-1.479-1.088-2.001c-0.726-0.522-2.044-1.131-3.958-1.827l-4.785-1.74
		c-3.597-1.275-6.046-3.001-7.352-5.177c-1.305-2.175-1.958-4.711-1.958-7.612c0-1.971,0.333-3.871,1-5.698
		c0.666-1.827,1.753-3.406,3.263-4.742c1.507-1.333,3.465-2.406,5.872-3.219c2.406-0.811,5.321-1.218,8.744-1.218
		c2.377,0,4.655,0.204,6.83,0.608c2.175,0.407,4.103,0.9,5.786,1.479l-0.522,11.311c-1.451-0.638-3.162-1.262-5.133-1.871
		c-1.972-0.608-3.973-0.913-6.003-0.913c-1.509,0-2.814,0.247-3.915,0.739c-1.103,0.493-1.653,1.349-1.653,2.566
		c0,0.813,0.405,1.509,1.218,2.088c0.812,0.581,2.145,1.219,4.002,1.914l5.22,1.914c1.392,0.522,2.653,1.103,3.785,1.74
		c1.131,0.639,2.088,1.436,2.871,2.393c0.783,0.957,1.377,2.131,1.784,3.523c0.405,1.392,0.609,3.075,0.609,5.046
		c0,4.698-1.552,8.352-4.654,10.962c-3.104,2.61-8.019,3.915-14.747,3.915c-1.218,0-2.509-0.059-3.872-0.174
		c-1.363-0.117-2.683-0.276-3.958-0.479c-1.276-0.204-2.436-0.436-3.48-0.696s-1.885-0.507-2.523-0.739L215.174,243.122z"/>
	<path d="M254.845,191.008h15.66v20.097c0,0.929-0.03,1.886-0.087,2.871c-0.058,0.987-0.146,1.886-0.261,2.697h0.261
		c2.552-4.523,6.525-6.786,11.919-6.786c1.914,0,3.711,0.291,5.394,0.87c1.682,0.58,3.146,1.479,4.394,2.697
		c1.247,1.218,2.219,2.74,2.915,4.567c0.696,1.827,1.044,3.988,1.044,6.481v31.755h-15.66v-27.231c0-4.291-1.422-6.438-4.263-6.438
		c-0.987,0-1.827,0.232-2.523,0.696c-0.696,0.465-1.276,1.103-1.74,1.914c-0.465,0.813-0.813,1.755-1.044,2.827
		c-0.232,1.074-0.348,2.189-0.348,3.35v24.882h-15.66V191.008z"/>
	<path d="M318.267,237.901c0.116,1.857,0.492,3.38,1.131,4.568c0.638,1.189,1.464,2.161,2.479,2.914
		c1.014,0.755,2.189,1.276,3.524,1.566c1.333,0.29,2.725,0.435,4.176,0.435c2.145,0,4.407-0.392,6.786-1.175
		c2.377-0.782,4.524-1.579,6.438-2.393l0.348,10.875c-1.857,0.64-4.162,1.219-6.917,1.74c-2.755,0.522-5.728,0.812-8.917,0.87
		c-4.582,0-8.396-0.696-11.44-2.088s-5.467-3.219-7.264-5.481c-1.799-2.262-3.075-4.828-3.828-7.699
		c-0.754-2.871-1.131-5.756-1.131-8.656c0-3.132,0.448-6.104,1.348-8.918c0.898-2.813,2.247-5.307,4.045-7.481
		c1.797-2.176,4.002-3.9,6.612-5.177c2.61-1.274,5.625-1.914,9.048-1.914c3.537,0,6.612,0.653,9.222,1.958
		c2.61,1.305,4.785,3.045,6.525,5.22c1.74,2.175,3.03,4.685,3.872,7.525c0.84,2.843,1.261,5.801,1.261,8.874v4.437H318.267z
		 M331.316,229.723v-1.305c0-3.073-0.465-5.336-1.392-6.786c-0.929-1.449-2.582-2.175-4.959-2.175c-2.205,0-3.93,0.929-5.177,2.784
		c-1.248,1.856-1.871,4.35-1.871,7.481H331.316z"/>
	<path d="M395.958,248.254c0,1.335,0.029,2.668,0.087,4.002c0.057,1.335,0.144,2.668,0.261,4.002h-14.964
		c-0.117-1.218-0.218-2.436-0.305-3.654c-0.087-1.218-0.13-2.436-0.13-3.653h-0.174c-1.683,3.074-3.51,5.176-5.481,6.307
		c-1.973,1.132-4.147,1.697-6.525,1.697c-2.958,0-5.511-0.624-7.656-1.871c-2.146-1.246-3.915-2.972-5.307-5.176
		s-2.407-4.799-3.045-7.787c-0.639-2.986-0.957-6.19-0.957-9.613c0-2.667,0.318-5.336,0.957-8.004
		c0.638-2.667,1.609-5.09,2.915-7.265c1.305-2.175,2.972-3.943,5.002-5.308c2.029-1.361,4.465-2.044,7.308-2.044
		c3.015,0,5.451,0.624,7.308,1.87c1.855,1.248,3.595,3.176,5.22,5.786h0.174c-0.117-0.985-0.204-2.16-0.261-3.523
		c-0.059-1.362-0.087-2.885-0.087-4.567v-18.444h15.66V248.254z M369.423,242.425c0.87,2.379,2.464,3.567,4.785,3.567
		c1.971,0,3.48-1.175,4.524-3.523c1.044-2.35,1.566-5.438,1.566-9.266s-0.522-6.902-1.566-9.223
		c-1.044-2.318-2.553-3.479-4.524-3.479c-2.32,0-3.915,1.161-4.785,3.479c-0.87,2.32-1.305,5.395-1.305,9.223
		C368.118,236.974,368.553,240.047,369.423,242.425z"/>
	<path d="M427.189,191.008h15.66v18.444c0,1.683-0.03,3.205-0.087,4.567c-0.058,1.363-0.146,2.538-0.261,3.523h0.174
		c1.623-2.61,3.363-4.538,5.22-5.786c1.855-1.246,4.292-1.87,7.308-1.87c2.841,0,5.277,0.683,7.308,2.044
		c2.03,1.364,3.698,3.133,5.002,5.308c1.305,2.175,2.276,4.598,2.915,7.265c0.638,2.668,0.957,5.337,0.957,8.004
		c0,3.423-0.319,6.627-0.957,9.613c-0.639,2.988-1.653,5.583-3.045,7.787s-3.162,3.93-5.307,5.176
		c-2.146,1.247-4.698,1.871-7.656,1.871c-2.379,0-4.554-0.565-6.525-1.697c-1.973-1.131-3.8-3.232-5.481-6.307h-0.174
		c0,1.218-0.043,2.436-0.13,3.653c-0.087,1.219-0.189,2.437-0.305,3.654h-14.964c0.116-1.334,0.203-2.667,0.261-4.002
		c0.057-1.334,0.087-2.667,0.087-4.002V191.008z M453.724,223.981c-0.87-2.318-2.466-3.479-4.785-3.479
		c-1.973,0-3.48,1.161-4.524,3.479c-1.044,2.32-1.566,5.395-1.566,9.223s0.522,6.916,1.566,9.266
		c1.044,2.349,2.551,3.523,4.524,3.523c2.319,0,3.915-1.188,4.785-3.567c0.87-2.378,1.305-5.451,1.305-9.222
		C455.029,229.375,454.594,226.301,453.724,223.981z"/>
	<path d="M491.22,210.931l8.091,28.884h0.174l7.482-28.884h15.225l-16.965,50.547c-0.639,1.914-1.378,3.727-2.218,5.438
		c-0.841,1.71-1.914,3.204-3.219,4.48c-1.305,1.275-2.886,2.291-4.741,3.045c-1.857,0.754-4.147,1.132-6.873,1.132
		c-2.205,0-4.002-0.175-5.394-0.522s-2.495-0.667-3.306-0.957l0.435-11.31c0.753,0.23,1.436,0.42,2.044,0.565
		c0.609,0.144,1.319,0.217,2.132,0.217c2.436,0,4.276-0.682,5.524-2.044c1.247-1.363,1.871-3.118,1.871-5.264l-16.617-45.327H491.22
		z"/>
</g>
</svg>