<svg  width="319.101px" height="297.752px" viewBox="0 0 319.101 297.752"  xmlns="http://www.w3.org/2000/svg">
<g>
	<path d="M237.587,283.986H49.24c-8.493,0-16.477-3.307-22.481-9.312c-6.004-6.004-9.312-13.988-9.312-22.48V83.723
		c0-8.493,3.308-16.477,9.312-22.482c6.004-6.005,13.988-9.312,22.481-9.312h188.348c8.493,0,16.477,3.307,22.481,9.312
		s9.311,13.989,9.311,22.482v168.471c0,8.492-3.306,16.477-9.311,22.48C254.064,280.679,246.081,283.986,237.587,283.986
		L237.587,283.986z M49.24,60.413c-12.853,0-23.31,10.457-23.31,23.31v168.471c0,12.852,10.457,23.308,23.31,23.308h188.348
		c12.852,0,23.308-10.456,23.308-23.308V83.723c0-12.854-10.456-23.31-23.308-23.31H49.24L49.24,60.413z"/>
</g>
<g>
	<path fill="#F37232" d="M120.185,244.047c-0.001,0-0.001,0-0.002,0c-8.98,0-17.088-0.93-24.1-2.765
		c-7.743-2.025-14.37-5.208-19.697-9.459c-10.479-8.323-17.92-18.164-22.115-29.249c-3.888-10.272-5.013-21.678-3.347-33.897
		c1.99-14.598,7.929-30.336,17.649-46.779c8.748-14.796,20.259-29.714,34.213-44.337c12.832-13.448,27.472-26.273,42.335-37.091
		c14.657-10.667,29.299-19.22,42.344-24.735c0.271-0.116,0.675-0.298,1.145-0.509c4.028-1.815,12.41-5.594,20.415-5.594
		c8.875,0,13.135,4.643,15.147,8.537c2.462,4.768,2.967,9.25,1.5,13.327c-1.254,3.486-3.854,6.466-7.946,9.107
		c-3.142,2.029-6.663,3.531-9.493,4.738c-20.261,8.646-50.263,30.222-74.656,53.687C103.8,127.672,86.1,155.021,83.739,176.035
		c-1.534,13.647,3.256,24.296,14.644,32.549l0.021,0.016c4.307,3.161,10.961,4.763,19.777,4.763c0.001,0,0.003,0,0.006,0
		c18.825-0.002,46.681-7.187,82.795-21.353c29.282-11.487,56.267-24.611,67.791-30.215c3.296-1.604,5.32-2.587,6.296-3.008
		c0.39-0.184,0.88-0.426,1.442-0.706c3.869-1.923,10.342-5.141,16.771-5.141c6.003,0,10.651,2.793,13.442,8.074
		c2.262,4.234,2.719,8.776,1.323,13.136c-1.406,4.387-4.598,8.546-9.49,12.36c-3.255,2.539-6.204,4.065-6.662,4.299
		c-7.748,4.073-34.734,17.198-66.839,29.198c-18.889,7.061-36.648,12.662-52.788,16.651
		C152.429,241.561,134.904,244.047,120.185,244.047L120.185,244.047z"/>
</g>
</svg>
